<svg id="Group_39073" data-name="Group 39073" xmlns="http://www.w3.org/2000/svg" xmlns:xlink="http://www.w3.org/1999/xlink" width="274.03" height="201.07" viewBox="0 0 274.03 201.07">
  <defs>
    <clipPath id="clip-path">
      <rect id="Rectangle_4108" data-name="Rectangle 4108" width="274.03" height="201.07" fill="none"/>
    </clipPath>
  </defs>
  <g id="Group_39072" data-name="Group 39072" clip-path="url(#clip-path)">
    <path id="Path_17028" data-name="Path 17028" d="M137.69,130.9H41.829a11.713,11.713,0,0,1-11.356-8.845L3.283,14.359A9.126,9.126,0,0,1,12.131,3H156.623l18.689,74.03" transform="translate(-1.291 -1.29)" fill="#006067"/>
    <path id="Path_17029" data-name="Path 17029" d="M136.4,131.32H40.538a13.407,13.407,0,0,1-13.014-10.137L.335,13.487A10.836,10.836,0,0,1,10.84,0H155.333a1.711,1.711,0,0,1,1.658,1.291l18.689,74.03a1.71,1.71,0,1,1-3.316.837L154,3.419H10.84A7.416,7.416,0,0,0,3.65,12.65l27.189,107.7a9.992,9.992,0,0,0,9.7,7.555H136.4a1.71,1.71,0,1,1,0,3.419" transform="translate(0)" fill="#006067"/>
    <path id="Path_17030" data-name="Path 17030" d="M147.619,130.9H52.994a8.841,8.841,0,0,1-8.571-6.676L15.36,9.106A4.906,4.906,0,0,1,20.115,3H166.887a6.143,6.143,0,0,1,5.957,4.64l18.968,75.132" transform="translate(-6.541 -1.29)" fill="#fff"/>
    <path id="Path_17031" data-name="Path 17031" d="M146.328,131.32H51.7a10.54,10.54,0,0,1-10.229-7.967L12.412,8.234A6.615,6.615,0,0,1,18.825,0H165.6a7.844,7.844,0,0,1,7.614,5.931l18.968,75.132a1.71,1.71,0,1,1-3.316.837L169.9,6.768a4.429,4.429,0,0,0-4.3-3.349H18.825a3.2,3.2,0,0,0-3.1,3.978L44.79,122.515A7.123,7.123,0,0,0,51.7,127.9h94.625a1.71,1.71,0,0,1,0,3.419" transform="translate(-5.25)" fill="#006067"/>
    <path id="Path_17032" data-name="Path 17032" d="M163.411,129.078H72.855a1.71,1.71,0,0,1-1.658-1.291L43.523,18.169a1.71,1.71,0,0,1,1.658-2.129H172.7a1.711,1.711,0,0,1,1.658,1.291l18.286,72.433a1.71,1.71,0,1,1-3.315.837L171.363,19.459H47.376l26.811,106.2h89.225a1.71,1.71,0,1,1,0,3.419" transform="translate(-18.697 -6.899)" fill="#006067"/>
    <line id="Line_138" data-name="Line 138" x1="5.431" y1="21.512" transform="translate(29.579 56.913)" fill="#fff"/>
    <path id="Path_17033" data-name="Path 17033" d="M56.042,121.8a1.71,1.71,0,0,1-1.656-1.292L48.954,98.991a1.71,1.71,0,1,1,3.315-.837L57.7,119.667a1.711,1.711,0,0,1-1.659,2.129" transform="translate(-21.032 -41.66)" fill="#006067"/>
    <path id="Path_17034" data-name="Path 17034" d="M306.134,109.685a3.2,3.2,0,1,1-3.2-3.2,3.2,3.2,0,0,1,3.2,3.2" transform="translate(-128.913 -45.798)" fill="#006067"/>
    <line id="Line_139" data-name="Line 139" x2="60.754" transform="translate(40.77 23.25)" fill="#fff"/>
    <path id="Path_17035" data-name="Path 17035" d="M131,41.215H70.247a1.71,1.71,0,0,1,0-3.419H131a1.71,1.71,0,0,1,0,3.419" transform="translate(-29.477 -16.256)" fill="#006067"/>
    <line id="Line_140" data-name="Line 140" x2="60.754" transform="translate(44.004 32.684)" fill="#fff"/>
    <path id="Path_17036" data-name="Path 17036" d="M136.676,57.768H75.923a1.71,1.71,0,0,1,0-3.419h60.754a1.71,1.71,0,1,1,0,3.419" transform="translate(-31.919 -23.375)" fill="#006067"/>
    <line id="Line_141" data-name="Line 141" x2="30.994" transform="translate(47.238 42.117)" fill="#fff"/>
    <path id="Path_17037" data-name="Path 17037" d="M112.592,74.321H81.6a1.71,1.71,0,0,1,0-3.419h30.994a1.71,1.71,0,1,1,0,3.419" transform="translate(-34.359 -30.495)" fill="#006067"/>
    <line id="Line_142" data-name="Line 142" x2="62.179" transform="translate(54.145 76.174)" fill="#fff"/>
    <path id="Path_17038" data-name="Path 17038" d="M155.9,134.081H93.718a1.71,1.71,0,1,1,0-3.419H155.9a1.71,1.71,0,0,1,0,3.419" transform="translate(-39.572 -56.197)" fill="#006067"/>
    <line id="Line_143" data-name="Line 143" x2="62.179" transform="translate(57.479 88.083)" fill="#fff"/>
    <path id="Path_17039" data-name="Path 17039" d="M161.748,154.975H99.569a1.71,1.71,0,1,1,0-3.419h62.179a1.71,1.71,0,0,1,0,3.419" transform="translate(-42.089 -65.184)" fill="#006067"/>
    <line id="Line_144" data-name="Line 144" x2="62.179" transform="translate(60.814 99.991)" fill="#fff"/>
    <path id="Path_17040" data-name="Path 17040" d="M167.6,175.87H105.419a1.71,1.71,0,1,1,0-3.419H167.6a1.71,1.71,0,1,1,0,3.419" transform="translate(-44.605 -74.17)" fill="#006067"/>
    <path id="Path_17041" data-name="Path 17041" d="M198.966,38.9l31.292-.213,7.451,27.035-31.718.213Z" transform="translate(-85.574 -16.64)" fill="#fff"/>
    <path id="Path_17042" data-name="Path 17042" d="M204.7,66.357a1.71,1.71,0,0,1-1.655-1.279l-7.024-27.035a1.709,1.709,0,0,1,1.642-2.14l31.292-.213h.012a1.71,1.71,0,0,1,1.648,1.256l7.451,27.035a1.71,1.71,0,0,1-1.637,2.164l-31.717.213Zm-4.817-27.05,6.137,23.621,28.157-.189-6.51-23.621Z" transform="translate(-84.284 -15.35)" fill="#006067"/>
    <path id="Path_17043" data-name="Path 17043" d="M375.282,274.106c-3,1.581-6.7,3.787-8.112,7.053-1.368,3.164.324,7.118,1.213,10.186,1.363,4.7,2.665,9.427,4.4,14.005,1.019,2.684,3.28,10.527,6.553,10.281,3.363-.254,28.407-8.314,37.455-10.7,7.582-2,18.208-6.108,13.962-15.8a25.6,25.6,0,0,0-5.627-7.506c-5.824-5.856-11.037-12.572-19.507-14.6-7.564-1.808-15.43.427-22.365,3.46-2.249.984-5.182,2.147-7.975,3.621" transform="translate(-157.697 -114.567)" fill="#ffc3b5"/>
    <path id="Path_17044" data-name="Path 17044" d="M323.112,268.231a1.711,1.711,0,0,1-1.6-1.108,90.738,90.738,0,0,0-11.187-20.458c-7.817,2.483-16.683-.971-22.117-4.872-2.793-1.813-25.79-16.768-28.4-19.048a3.282,3.282,0,0,1,.4-5.606c9.584-6.243,24.371-1.158,35.013,5.685a1.71,1.71,0,0,1-1.85,2.876c-9.3-5.977-23.071-11.055-31.3-5.7q-.065.043-.113.079c.027.027.058.055.095.087,2.062,1.8,20.945,14.165,28.047,18.778l.068.046c4.04,2.91,12.827,7.035,20.132,4.044a1.709,1.709,0,0,1,2.025.57,95.084,95.084,0,0,1,12.383,22.311,1.711,1.711,0,0,1-1.6,2.312" transform="translate(-111.144 -92.175)" fill="#006067"/>
    <path id="Path_17045" data-name="Path 17045" d="M278.251,192.38c-9.778-7.7-19.935-14.845-26.407-19.567C232.089,158.4,218.67,149.863,221.074,140.6c.489-1.861,20.492,9.369,20.492,9.369s31.606,16.72,46.681,25.883" transform="translate(-94.963 -60.383)" fill="#fff"/>
    <path id="Path_17046" data-name="Path 17046" d="M276.956,192.812a1.7,1.7,0,0,1-1.057-.367c-7.583-5.974-15.326-11.56-21.548-16.048-1.755-1.265-3.372-2.432-4.808-3.48q-2.837-2.07-5.492-3.984c-17.1-12.366-28.394-20.535-25.927-30.038a1.95,1.95,0,0,1,1.139-1.307c.8-.341,2.689-1.139,21.845,9.615.279.146,31.786,16.828,46.732,25.913a1.71,1.71,0,0,1-1.776,2.922c-14.859-9.032-46.277-25.666-46.592-25.833-6.945-3.9-15.14-8.081-18.245-9.13-.38,6.857,9.833,14.243,24.828,25.088q2.655,1.92,5.5,3.992c1.432,1.045,3.044,2.208,4.793,3.47,6.248,4.507,14.024,10.116,21.663,16.136a1.71,1.71,0,0,1-1.059,3.052" transform="translate(-93.669 -59.106)" fill="#006067"/>
    <path id="Path_17047" data-name="Path 17047" d="M326.838,178.58a1.7,1.7,0,0,1-.928-.274l-18.83-12.187a19.452,19.452,0,0,0-6.244-3.073c-1.766-.372-4.081-.077-5.271,1.414a1.71,1.71,0,0,1-2.672-2.134,8.739,8.739,0,0,1,8.644-2.627,22.327,22.327,0,0,1,7.4,3.55l18.831,12.186a1.71,1.71,0,0,1-.931,3.145" transform="translate(-125.811 -68.59)" fill="#006067"/>
    <path id="Path_17048" data-name="Path 17048" d="M347.524,170.657a1.7,1.7,0,0,1-1.136-.433c-.928-.826-1.8-1.6-2.668-2.383-1.674-1.5-3.348-3-5.442-4.84a19.782,19.782,0,0,0-5.411-3.8,5.482,5.482,0,0,0-5.221.321,1.71,1.71,0,0,1-2.082-2.713,8.808,8.808,0,0,1,8.563-.788,22.652,22.652,0,0,1,6.41,4.409c2.1,1.85,3.784,3.354,5.464,4.858.868.777,1.735,1.554,2.661,2.378a1.709,1.709,0,0,1-1.138,2.986" transform="translate(-139.736 -66.788)" fill="#006067"/>
    <path id="Path_17049" data-name="Path 17049" d="M406.435,226.938a1.7,1.7,0,0,1-1.164-.458A126.743,126.743,0,0,1,375.38,184.1c-.373-.866-.737-1.738-1.1-2.611a55.4,55.4,0,0,0-5.352-10.65c-3-4.29-7.005-6.989-10.984-7.406a1.709,1.709,0,1,1,.356-3.4c4.965.52,9.86,3.744,13.43,8.846a58.851,58.851,0,0,1,5.706,11.294c.36.861.719,1.721,1.086,2.575A123.309,123.309,0,0,0,407.6,223.976a1.71,1.71,0,0,1-1.164,2.962" transform="translate(-153.291 -68.823)" fill="#006067"/>
    <path id="Path_17050" data-name="Path 17050" d="M423.626,169.7a1.711,1.711,0,0,1-1.633-1.206,50.959,50.959,0,0,0-10.25-18.382,1.71,1.71,0,0,1,2.575-2.251,54.41,54.41,0,0,1,10.943,19.625,1.711,1.711,0,0,1-1.635,2.214" transform="translate(-176.907 -63.344)" fill="#006067"/>
    <path id="Path_17051" data-name="Path 17051" d="M448.364,182.666a1.709,1.709,0,0,1-1.7-1.577,82.8,82.8,0,0,0-6.313-25.9,1.71,1.71,0,0,1,3.149-1.334,86.207,86.207,0,0,1,6.573,26.971,1.71,1.71,0,0,1-1.572,1.837c-.045,0-.09.005-.134.005" transform="translate(-189.333 -65.723)" fill="#006067"/>
    <path id="Path_17052" data-name="Path 17052" d="M207.255,30.614l31.292-.213L246,57.436l-31.718.213Z" transform="translate(-89.139 -13.075)" fill="#fffba9"/>
    <line id="Line_145" data-name="Line 145" x1="24.267" y2="27.248" transform="translate(125.14 17.326)" fill="#fffba9"/>
    <line id="Line_146" data-name="Line 146" x2="38.743" y2="26.822" transform="translate(118.115 17.539)" fill="#fffba9"/>
    <path id="Path_17053" data-name="Path 17053" d="M204.7,66.357a1.71,1.71,0,0,1-1.655-1.279l-7.024-27.035a1.709,1.709,0,0,1,1.642-2.14l31.292-.213h.012a1.71,1.71,0,0,1,1.648,1.256l7.451,27.035a1.71,1.71,0,0,1-1.637,2.164l-31.717.213Zm-4.817-27.05,6.137,23.621,28.157-.189-6.51-23.621Z" transform="translate(-84.284 -15.35)" fill="#006067"/>
  </g>
</svg>
