<svg id="Group_39155" data-name="Group 39155" xmlns="http://www.w3.org/2000/svg" xmlns:xlink="http://www.w3.org/1999/xlink" width="438.554" height="315.539" viewBox="0 0 438.554 315.539">
  <defs>
    <clipPath id="clip-path">
      <rect id="Rectangle_4186" data-name="Rectangle 4186" width="438.554" height="315.539" fill="none"/>
    </clipPath>
  </defs>
  <g id="Group_39154" data-name="Group 39154" clip-path="url(#clip-path)">
    <path id="Path_17148" data-name="Path 17148" d="M309.179,267.07,101.044,297.525a8.254,8.254,0,0,1-9.363-6.972L72.471,159.27a8.254,8.254,0,0,1,6.972-9.362l208.136-30.456a8.254,8.254,0,0,1,9.362,6.973l19.21,131.283a8.253,8.253,0,0,1-6.972,9.362" transform="translate(6.544 10.792)" fill="#fff"/>
    <path id="Path_17149" data-name="Path 17149" d="M279.221,131.983l17.248,117.872c.036.248.061.5.087.747Z" transform="translate(25.245 11.933)" fill="#fff"/>
    <path id="Path_17150" data-name="Path 17150" d="M99.771,299.944a10.233,10.233,0,0,1-10.089-8.772L77.626,208.7l-7.163-49.188A10.237,10.237,0,0,1,79.085,147.9l27.708-4.045a2.181,2.181,0,0,1,.631,4.316L79.714,152.22a5.869,5.869,0,0,0-4.935,6.663L94,290.542a5.86,5.86,0,0,0,2.3,3.872,5.774,5.774,0,0,0,4.34,1.1l208.589-30.455a5.871,5.871,0,0,0,4.937-6.664l-.816-5.587a2.3,2.3,0,0,1-.023-.273l-.755-5.169a2.18,2.18,0,0,1,4.315-.63l1.337,9.149a2.21,2.21,0,0,1,.024.279l.234,1.6a10.24,10.24,0,0,1-8.623,11.611l-208.59,30.455a10.466,10.466,0,0,1-1.494.108m208.7-93.5a2.18,2.18,0,0,1-2.155-1.866L294.942,126.74a5.876,5.876,0,0,0-6.636-4.977l-21.786,3.181a2.1,2.1,0,0,1-.285.023l-17.376,2.541a2.181,2.181,0,1,1-.63-4.316l25.881-3.784a2,2,0,0,1,.3-.023l13.266-1.938a10.235,10.235,0,0,1,11.582,8.662l11.372,77.841a2.179,2.179,0,0,1-1.842,2.473,2.246,2.246,0,0,1-.318.023" transform="translate(6.361 10.609)" fill="#036067"/>
    <path id="Path_17151" data-name="Path 17151" d="M115.3,159.486a2.181,2.181,0,0,1-.313-4.339l139.762-20.435a2.181,2.181,0,1,1,.63,4.316L115.622,159.463a2.258,2.258,0,0,1-.318.023" transform="translate(10.228 12.177)" fill="#036067"/>
    <path id="Path_17152" data-name="Path 17152" d="M115.3,159.486a2.181,2.181,0,0,1-.313-4.339l139.762-20.435a2.181,2.181,0,1,1,.63,4.316L115.622,159.463a2.258,2.258,0,0,1-.318.023" transform="translate(10.228 12.177)" fill="#036067"/>
    <path id="Path_17153" data-name="Path 17153" d="M116.177,281.234a8.685,8.685,0,0,1-8.565-7.43L92.116,167.66a8.68,8.68,0,0,1,7.31-9.841l22.339-3.261a2.334,2.334,0,0,1,.243-.021l134.653-19.688a2.376,2.376,0,0,1,.263-.022l10.674-1.558a8.669,8.669,0,0,1,9.816,7.341l10.8,73.9a2.18,2.18,0,0,1-4.315.63l-10.8-73.9a4.306,4.306,0,0,0-1.688-2.843,4.248,4.248,0,0,0-3.181-.811l-17.564,2.564a2.2,2.2,0,0,1-.249.023L117.53,159.6a2.055,2.055,0,0,1-.255.023l-17.219,2.513a4.313,4.313,0,0,0-3.625,4.895l15.5,106.143a4.305,4.305,0,0,0,4.871,3.654l134.643-19.656a2.181,2.181,0,1,1,.63,4.317L117.427,281.144a8.688,8.688,0,0,1-1.251.09m174.572-31.985a2.182,2.182,0,0,1-2.157-1.866l-.656-4.5a2.181,2.181,0,0,1,4.317-.63l.658,4.5a2.181,2.181,0,0,1-1.843,2.473,2.269,2.269,0,0,1-.318.023" transform="translate(8.32 12.041)" fill="#036067"/>
    <path id="Path_17154" data-name="Path 17154" d="M283.162,192.235a4.632,4.632,0,1,1-4.147-5.07,4.631,4.631,0,0,1,4.147,5.07" transform="translate(24.766 16.92)" fill="#036067"/>
    <path id="Path_17155" data-name="Path 17155" d="M262.141,211.731l-.434,5.74a2.1,2.1,0,0,1-2.32,1.927l-3.959-.4c-.009,0-.009,0-.01.008a22.523,22.523,0,0,1-3.694,7.207v.017l2.6,3.08a2.184,2.184,0,0,1,.507,1.568,2.08,2.08,0,0,1-.736,1.452l-4.344,3.626a2.144,2.144,0,0,1-1.246.508,2.189,2.189,0,0,1-1.82-.78l-2.593-3.079c-.009-.01-.017-.011-.017,0a22.916,22.916,0,0,1-7.774,2.354c-.009,0-.009,0-.009.008l-.3,3.951a2.1,2.1,0,0,1-2.319,1.935l-5.736-.574a2.223,2.223,0,0,1-1.986-2.367l.3-3.951a.009.009,0,0,0-.008-.01,24.232,24.232,0,0,1-7.311-3.864s0-.01-.009,0l-3.017,2.518a2.08,2.08,0,0,1-1.76.439,2.286,2.286,0,0,1-1.309-.792l-3.726-4.425a2.191,2.191,0,0,1-.516-1.578,2.08,2.08,0,0,1,.744-1.443l3.017-2.518c.01-.008.01-.008,0-.017a23.669,23.669,0,0,1-2.547-7.831l-.009-.01-3.968-.4a2.219,2.219,0,0,1-1.986-2.359l.434-5.74a2.091,2.091,0,0,1,.906-1.569l.01-.008.053-.717-.008-.009a19.449,19.449,0,0,1-5.668-3.005.008.008,0,0,0-.009.009l-2.311,1.919a1.956,1.956,0,0,1-2.752-.276l-3.037-3.606a1.946,1.946,0,0,1,.208-2.754l2.3-1.92c.009,0,.009-.008,0-.017a19.307,19.307,0,0,1-1.974-6.07c0-.009-.009-.01-.009-.01l-3.027-.3a2.017,2.017,0,0,1-1.806-2.144l.35-4.624a1.9,1.9,0,0,1,2.1-1.761l3.037.3a18.293,18.293,0,0,1,2.856-5.595c.01,0,.01-.008,0-.009l-1.986-2.359a1.95,1.95,0,0,1,.207-2.746l3.543-2.956a1.931,1.931,0,0,1,1.419-.43,1.994,1.994,0,0,1,1.334.706l1.986,2.359h.01a18.453,18.453,0,0,1,6.032-1.823c0-.009.01-.008.011-.016l.228-3.012a1.9,1.9,0,0,1,2.1-1.762l4.643.466a2.013,2.013,0,0,1,1.8,2.134l-.229,3.029c0,.01.009.01.008.019a19.532,19.532,0,0,1,5.668,3h.009l2.311-1.928a1.9,1.9,0,0,1,1.42-.43,2.026,2.026,0,0,1,1.332.706l3.037,3.615a1.935,1.935,0,0,1-.208,2.746l-2.3,1.929c-.009,0-.01.008,0,.009a19.442,19.442,0,0,1,1.974,6.079l.737.073a2.109,2.109,0,0,1,1.71-.614l5.744.576a2.23,2.23,0,0,1,1.994,2.368l-.3,3.951a.009.009,0,0,0,.008.01,24.107,24.107,0,0,1,7.3,3.863c0,.009.008.01.017,0l3.017-2.519a2.083,2.083,0,0,1,1.76-.439,2.319,2.319,0,0,1,1.309.793l3.726,4.424a2.2,2.2,0,0,1,.507,1.577,2.073,2.073,0,0,1-.735,1.444l-3.027,2.517v.019a23.69,23.69,0,0,1,2.556,7.832.009.009,0,0,0,.009.01l3.968.4a2.219,2.219,0,0,1,1.987,2.35" transform="translate(16.921 14.621)" fill="#fffba8"/>
    <path id="Path_17156" data-name="Path 17156" d="M207.112,193.309a1.015,1.015,0,0,1-1.126.931,12.993,12.993,0,0,1-11.519-14.915,12.286,12.286,0,0,1,7.052-9.189,1.073,1.073,0,0,1,1.46.7v.005a1,1,0,0,1-.535,1.2,10.214,10.214,0,0,0-6.009,8.582,10.834,10.834,0,0,0,9.709,11.539,1.084,1.084,0,0,1,.968,1.15" transform="translate(17.567 15.374)" fill="#036067"/>
    <path id="Path_17157" data-name="Path 17157" d="M218.393,182.994a1.022,1.022,0,0,1-1.126.94,1.084,1.084,0,0,1-.968-1.149,10.863,10.863,0,0,0-7.769-11.167c-.214-.061-.429-.114-.642-.162a1.078,1.078,0,0,1-.853-1.123,1.021,1.021,0,0,1,1.249-.918,12.927,12.927,0,0,1,8.136,5.752,12.713,12.713,0,0,1,1.975,7.828" transform="translate(18.718 15.315)" fill="#036067"/>
    <path id="Path_17158" data-name="Path 17158" d="M215.75,209.215a1.105,1.105,0,0,1-.707,1.411,1.15,1.15,0,0,1-1.42-.74,14.048,14.048,0,0,1,16.883-18.214,1.148,1.148,0,0,1,.789,1.524,1.071,1.071,0,0,1-1.258.647,11.869,11.869,0,0,0-14.288,15.373" transform="translate(19.245 17.288)" fill="#036067"/>
    <path id="Path_17159" data-name="Path 17159" d="M240.1,205.941a1.154,1.154,0,0,1,1.016,1.349,13.68,13.68,0,0,1-3.7,7.173,14,14,0,0,1-11.423,4.139l-.088-.01a14.629,14.629,0,0,1-9.707-5.068,1.107,1.107,0,0,1,.216-1.665,1.148,1.148,0,0,1,1.425.188,17.817,17.817,0,0,0,3.763,2.884,11.411,11.411,0,0,0,4.409,1.433,11.95,11.95,0,0,0,6.2-.967,11.772,11.772,0,0,0,6.72-8.6,1.069,1.069,0,0,1,1.171-.853" transform="translate(19.521 18.619)" fill="#036067"/>
    <path id="Path_17160" data-name="Path 17160" d="M257.046,206.233l-4-.4a23.757,23.757,0,0,0-2.555-7.85l3.027-2.525a2.079,2.079,0,0,0,.736-1.444,2.181,2.181,0,0,0-.507-1.577l-3.726-4.425a2.29,2.29,0,0,0-1.309-.792,2.075,2.075,0,0,0-1.76.439l-3.027,2.525a23.827,23.827,0,0,0-7.319-3.874l.3-3.977a2.21,2.21,0,0,0-1.978-2.349l-4.546-.455a1.084,1.084,0,0,0-1.2,1,1.151,1.151,0,0,0,1.034,1.229l4.448.445-.3,3.959a2.205,2.205,0,0,0,1.529,2.25,21.808,21.808,0,0,1,6.735,3.567,2.138,2.138,0,0,0,2.692-.007l3.018-2.519,3.644,4.319-3.018,2.526a2.1,2.1,0,0,0-.477,2.639,21.335,21.335,0,0,1,2.343,7.217,2.209,2.209,0,0,0,1.958,1.9l3.977.4-.42,5.553-3.978-.4a2.076,2.076,0,0,0-2.212,1.479,20.278,20.278,0,0,1-3.393,6.643,2.132,2.132,0,0,0,.073,2.694l2.594,3.079-4.24,3.538-2.594-3.08a2.154,2.154,0,0,0-2.652-.542,20.477,20.477,0,0,1-7.163,2.166,2.073,2.073,0,0,0-1.849,1.911l-.3,3.968-5.567-.558.3-3.968a2.2,2.2,0,0,0-1.533-2.25,21.516,21.516,0,0,1-6.73-3.558,2.139,2.139,0,0,0-2.7.007l-3.008,2.519-3.644-4.327,3.017-2.519a2.115,2.115,0,0,0,.476-2.639,21.578,21.578,0,0,1-2.351-7.224,2.213,2.213,0,0,0-1.959-1.891l-3.968-.4.125-1.656a1.149,1.149,0,0,0-1.034-1.228,1.085,1.085,0,0,0-1.2,1l-.132,1.754a2.209,2.209,0,0,0,1.977,2.349l3.987.4a23.629,23.629,0,0,0,2.555,7.851l-3.027,2.525a2.086,2.086,0,0,0-.745,1.443,2.21,2.21,0,0,0,.516,1.578l3.726,4.425a2.29,2.29,0,0,0,1.31.791,2.073,2.073,0,0,0,1.759-.439l3.027-2.525a24.041,24.041,0,0,0,7.319,3.874l-.3,3.968a2.218,2.218,0,0,0,1.986,2.359l5.754.577a2.084,2.084,0,0,0,2.3-1.92l.3-3.977a22.652,22.652,0,0,0,7.791-2.362l2.6,3.09a2.2,2.2,0,0,0,1.82.78,2.147,2.147,0,0,0,1.246-.508l4.344-3.626a2.1,2.1,0,0,0,.736-1.452,2.182,2.182,0,0,0-.507-1.568l-2.6-3.089a22.61,22.61,0,0,0,3.7-7.225l3.977.4a2.086,2.086,0,0,0,2.311-1.919l.435-5.756a2.2,2.2,0,0,0-1.969-2.34M227.271,169.2l-3.044-3.625a2.027,2.027,0,0,0-1.334-.7,1.9,1.9,0,0,0-1.419.429l-2.311,1.928a19.855,19.855,0,0,0-5.685-3.005l.231-3.047a2.006,2.006,0,0,0-1.789-2.125l-4.662-.467a1.893,1.893,0,0,0-2.09,1.746l-.23,3.037A18.543,18.543,0,0,0,198.9,165.2l-1.994-2.368a2,2,0,0,0-1.334-.7,1.931,1.931,0,0,0-1.419.429l-3.544,2.965a1.932,1.932,0,0,0-.2,2.73l1.993,2.366a18.231,18.231,0,0,0-2.867,5.6l-3.036-.3a1.909,1.909,0,0,0-2.1,1.753l-.351,4.641a2.009,2.009,0,0,0,1.8,2.135l3.044.3a19.106,19.106,0,0,0,1.981,6.089l-2.312,1.938a1.923,1.923,0,0,0-.207,2.736l3.044,3.625a1.94,1.94,0,0,0,2.726.274l2.338-1.934a19.848,19.848,0,0,0,3.342,2.057,1.117,1.117,0,0,0,1.517-.544,1.2,1.2,0,0,0,.089-.348,1.128,1.128,0,0,0-.624-1.1,17.665,17.665,0,0,1-3.17-1.968,1.926,1.926,0,0,0-2.434.005l-2.282,1.9-2.658-3.168,2.272-1.9a1.919,1.919,0,0,0,.433-2.411,17.01,17.01,0,0,1-1.873-5.737,2.009,2.009,0,0,0-1.774-1.733l-2.992-.3.309-4.066,2.991.3a1.879,1.879,0,0,0,2.007-1.342,16.424,16.424,0,0,1,2.717-5.3,1.964,1.964,0,0,0-.064-2.451l-1.963-2.32,3.094-2.582,1.963,2.32a1.968,1.968,0,0,0,2.405.491,16.429,16.429,0,0,1,5.719-1.728,1.882,1.882,0,0,0,1.68-1.733l.227-2.994,4.066.407-.227,2.994a2,2,0,0,0,1.395,2.041,17.283,17.283,0,0,1,5.374,2.839,1.943,1.943,0,0,0,2.443-.005l2.282-1.9,2.66,3.158-2.274,1.9a1.934,1.934,0,0,0-.426,2.416,15.958,15.958,0,0,1,.929,2.06,1.145,1.145,0,0,0,1.332.7,1.1,1.1,0,0,0,.835-.987,1.109,1.109,0,0,0-.071-.48,19.289,19.289,0,0,0-.956-2.131l2.318-1.935a1.931,1.931,0,0,0,.208-2.729m-1.7,17.447-.013-.055a1.13,1.13,0,0,0-1.319-.891,22.492,22.492,0,0,0-5.463,1.969l-2.6-3.089a.941.941,0,0,0-.1-.1s-1.233-.963-2.172-.611c0,.009,0,.009-.01.008a2.142,2.142,0,0,0-.746.4l-4.383,3.657a2.121,2.121,0,0,0-.523.661.01.01,0,0,1-.01.009,2.105,2.105,0,0,0,.216,2.234c.033.039.057.077.089.117l2.6,3.089a22.426,22.426,0,0,0-3.7,7.224l-1.971-.2a1.084,1.084,0,0,0-1.2,1A1.15,1.15,0,0,0,205.3,203.3l2.051.2a2.079,2.079,0,0,0,2.214-1.472,20.5,20.5,0,0,1,3.4-6.648,2.159,2.159,0,0,0-.073-2.7l-2.594-3.071V189.6l4.24-3.529,2.584,3.079a2.182,2.182,0,0,0,2.661.543,20.641,20.641,0,0,1,4.957-1.8,1.069,1.069,0,0,0,.829-1.256" transform="translate(16.639 14.337)" fill="#036067"/>
    <path id="Path_17161" data-name="Path 17161" d="M175.26,204.5a2.181,2.181,0,0,1-.313-4.339l5.23-.765a2.18,2.18,0,0,1,.631,4.315l-5.23.767a2.256,2.256,0,0,1-.318.023" transform="translate(15.649 18.025)" fill="#036067"/>
    <path id="Path_17162" data-name="Path 17162" d="M118.806,213.131a2.181,2.181,0,0,1-.313-4.339l36.192-5.3a2.18,2.18,0,0,1,.631,4.315l-36.192,5.3a2.258,2.258,0,0,1-.318.023" transform="translate(10.544 18.396)" fill="#036067"/>
    <path id="Path_17163" data-name="Path 17163" d="M145.228,226.371a2.181,2.181,0,0,1-.313-4.339l22.073-3.229a2.18,2.18,0,1,1,.631,4.315l-22.073,3.23a2.253,2.253,0,0,1-.318.023" transform="translate(12.933 19.78)" fill="#036067"/>
    <path id="Path_17164" data-name="Path 17164" d="M121.281,229.634a2.181,2.181,0,0,1-.313-4.339l2.2-.321a2.18,2.18,0,1,1,.631,4.315l-2.2.322a2.258,2.258,0,0,1-.318.023" transform="translate(10.768 20.338)" fill="#036067"/>
    <path id="Path_17165" data-name="Path 17165" d="M169.635,240.2a2.181,2.181,0,0,1-.313-4.339l31.8-4.653a2.18,2.18,0,1,1,.631,4.315l-31.8,4.654a2.258,2.258,0,0,1-.318.023" transform="translate(15.14 20.901)" fill="#036067"/>
    <path id="Path_17166" data-name="Path 17166" d="M123.757,246.841a2.181,2.181,0,0,1-.313-4.339l26.111-3.82a2.18,2.18,0,1,1,.631,4.315l-26.111,3.821a2.258,2.258,0,0,1-.318.023" transform="translate(10.992 21.577)" fill="#036067"/>
    <path id="Path_17167" data-name="Path 17167" d="M163.1,233.153l-10.056,1.471a1.308,1.308,0,0,0-1.1,1.484l1.32,9.02a1.307,1.307,0,0,0,1.483,1.1l10.056-1.471a1.308,1.308,0,0,0,1.1-1.483l-1.32-9.021a1.308,1.308,0,0,0-1.483-1.1" transform="translate(13.736 21.078)" fill="#fff"/>
    <path id="Path_17168" data-name="Path 17168" d="M165.85,247.656l-10.661,1.559a3.3,3.3,0,0,1-3.748-2.79l-1.56-10.661a3.3,3.3,0,0,1,2.791-3.748l10.661-1.56a3.3,3.3,0,0,1,3.748,2.791l1.559,10.661a3.3,3.3,0,0,1-2.79,3.748m-8.06-2.646,4.364-.639a2.7,2.7,0,0,0,2.281-3.063l-.638-4.364a2.7,2.7,0,0,0-3.064-2.282l-4.364.639a2.7,2.7,0,0,0-2.281,3.064l.638,4.363a2.7,2.7,0,0,0,3.064,2.282" transform="translate(13.548 20.833)" fill="#036067"/>
    <path id="Path_17169" data-name="Path 17169" d="M138.841,219.424,128.785,220.9a1.308,1.308,0,0,0-1.1,1.484L129,231.4a1.307,1.307,0,0,0,1.483,1.1l10.056-1.471a1.308,1.308,0,0,0,1.1-1.483l-1.32-9.021a1.308,1.308,0,0,0-1.483-1.1" transform="translate(11.542 19.837)" fill="#fff"/>
    <path id="Path_17170" data-name="Path 17170" d="M141.594,233.927l-10.661,1.559a3.3,3.3,0,0,1-3.748-2.79l-1.56-10.661a3.3,3.3,0,0,1,2.791-3.748l10.661-1.56a3.3,3.3,0,0,1,3.748,2.791l1.559,10.661a3.3,3.3,0,0,1-2.79,3.748m-8.06-2.646,4.364-.639a2.7,2.7,0,0,0,2.281-3.063l-.638-4.364a2.7,2.7,0,0,0-3.064-2.282l-4.364.639a2.7,2.7,0,0,0-2.281,3.064L130.47,229a2.7,2.7,0,0,0,3.064,2.282" transform="translate(11.355 19.591)" fill="#036067"/>
    <path id="Path_17171" data-name="Path 17171" d="M168.1,197.865l-10.056,1.471a1.308,1.308,0,0,0-1.1,1.484l1.32,9.02a1.307,1.307,0,0,0,1.483,1.1l10.056-1.471a1.308,1.308,0,0,0,1.1-1.483l-1.32-9.021a1.308,1.308,0,0,0-1.483-1.1" transform="translate(14.188 17.888)" fill="#fff"/>
    <path id="Path_17172" data-name="Path 17172" d="M170.856,212.367,160.2,213.926a3.3,3.3,0,0,1-3.748-2.79l-1.56-10.661a3.3,3.3,0,0,1,2.791-3.748l10.661-1.56a3.3,3.3,0,0,1,3.748,2.791l1.559,10.661a3.3,3.3,0,0,1-2.79,3.748m-8.06-2.646,4.364-.639a2.7,2.7,0,0,0,2.281-3.063l-.638-4.364a2.7,2.7,0,0,0-3.064-2.282l-4.364.639a2.7,2.7,0,0,0-2.281,3.064l.638,4.363a2.7,2.7,0,0,0,3.064,2.282" transform="translate(14 17.642)" fill="#036067"/>
    <path id="Path_17173" data-name="Path 17173" d="M93.431,229.328a2.182,2.182,0,0,1-2.156-1.865l-2.253-15.4a2.181,2.181,0,0,1,4.316-.632l2.253,15.4A2.18,2.18,0,0,1,93.75,229.3a2.253,2.253,0,0,1-.318.023" transform="translate(8.047 18.947)" fill="#036067"/>
    <path id="Path_17174" data-name="Path 17174" d="M359.994,179.333l-12.639,10.291-80.673,65.722a12.716,12.716,0,0,1-6.173,2.717L247.106,260a1.25,1.25,0,0,1-1.409-1.516l2.486-11.224a12.539,12.539,0,0,1,4.357-7.064l93.6-76.257,1.073,1.206,11.391,12.635Z" transform="translate(22.211 14.822)" fill="#fff"/>
    <path id="Path_17175" data-name="Path 17175" d="M362.1,181.6a1.986,1.986,0,0,1-.226,2.863l-11.026,8.977L270.179,259.16a12.714,12.714,0,0,1-6.172,2.718l-13.4,1.938a1.25,1.25,0,0,1-1.41-1.516l2.486-11.224a12.564,12.564,0,0,1,4.357-7.064l93.6-76.256,1.072,1.206Z" transform="translate(22.527 15.167)" fill="#af72f3"/>
    <path id="Path_17176" data-name="Path 17176" d="M340.457,189.587a1.636,1.636,0,0,1-1.034-2.9l14.942-12.171a1.635,1.635,0,1,1,2.065,2.536L341.488,189.22a1.625,1.625,0,0,1-1.032.367" transform="translate(30.633 15.745)" fill="#036067"/>
    <path id="Path_17177" data-name="Path 17177" d="M248.45,261.5a2.894,2.894,0,0,1-2.823-3.522l2.485-11.218a14.356,14.356,0,0,1,4.926-7.985l99.677-81.2a1.636,1.636,0,0,1,2.066,2.536l-99.677,81.2a11.058,11.058,0,0,0-3.8,6.158l-2.369,10.686,12.865-1.865a11.019,11.019,0,0,0,5.377-2.361l61.475-50.076a1.635,1.635,0,0,1,2.065,2.536L269.244,256.47a14.279,14.279,0,0,1-6.973,3.061l-13.4,1.944a2.973,2.973,0,0,1-.417.029" transform="translate(22.201 14.214)" fill="#036067"/>
    <path id="Path_17178" data-name="Path 17178" d="M353.124,179.839c-.178,0-.357-.01-.535-.027a5.141,5.141,0,0,1-3.487-1.881l-8.588-10.544a5.182,5.182,0,0,1,.744-7.282l3.42-2.785a5.176,5.176,0,0,1,7.282.744,1.636,1.636,0,1,1-2.537,2.066,1.9,1.9,0,0,0-2.679-.274l-3.418,2.786a1.906,1.906,0,0,0-.274,2.679l8.588,10.543a1.906,1.906,0,0,0,2.68.274l3.418-2.785a1.906,1.906,0,0,0,.274-2.679l-4.349-5.339a1.635,1.635,0,1,1,2.536-2.065l4.35,5.338a5.184,5.184,0,0,1-.745,7.282l-3.42,2.786a5.139,5.139,0,0,1-3.259,1.163" transform="translate(30.681 14.118)" fill="#036067"/>
    <path id="Path_17179" data-name="Path 17179" d="M261.218,247.469a1.634,1.634,0,0,1-1.25-.578l-6.285-7.414a1.636,1.636,0,0,1,2.5-2.115l6.286,7.414a1.636,1.636,0,0,1-1.247,2.693" transform="translate(22.901 21.408)" fill="#036067"/>
    <path id="Path_17180" data-name="Path 17180" d="M147.8,90.053c.4-7.714-.909-15.536-1.752-23.2-1.6-14.562-1.3-33.385,12.842-42.222,8.39-5.243,18.934-4.166,27.272.6,9.311,5.319,14.963,14.731,17.575,24.937,2.029,7.932,1.519,16.135,1.113,24.225-.528,10.488,1.05,20.744,1.531,31.178.31,6.729-1.8,13.016-7.388,17.076-6.628,4.815-15.426,5.018-23.276,4.193-9.524-1-21.967-4.864-27.411-13.388-3.859-6.04-.86-16.67-.51-23.344Z" transform="translate(13.145 1.913)" fill="#dacce5"/>
    <path id="Path_17181" data-name="Path 17181" d="M133.087,120.824a2.63,2.63,0,0,1-2.172-3.3,70.586,70.586,0,0,0,2.438-17.276,145.091,145.091,0,0,0-1.5-19.63c-.239-1.946-.475-3.895-.691-5.84-.939-8.513-1.528-17.634.514-26.659,2.248-9.938,7.714-18.24,14.993-22.782,11.53-7.195,28.118-5.1,39.442,4.988,9.372,8.347,15.179,21.416,16.345,36.8a156.6,156.6,0,0,1,.11,16.317c-.1,3.754-.214,7.636-.118,11.417a58.189,58.189,0,0,0,2.6,16.933,2.635,2.635,0,0,1-5,1.667,63.286,63.286,0,0,1-2.87-18.466c-.1-3.92.011-7.876.119-11.7a152.761,152.761,0,0,0-.1-15.77c-1.064-14.014-6.247-25.826-14.6-33.261-9.462-8.423-23.713-10.338-33.15-4.45-6.094,3.8-10.7,10.9-12.641,19.471-1.87,8.267-1.3,16.863-.414,24.918.213,1.929.447,3.855.683,5.78a148.9,148.9,0,0,1,1.538,20.353A75.817,75.817,0,0,1,136,118.9a2.637,2.637,0,0,1-2.916,1.921" transform="translate(11.781 1.906)" fill="#036067"/>
    <path id="Path_17182" data-name="Path 17182" d="M172.6,82.452a17.23,17.23,0,0,1-10.488-5.683,2.636,2.636,0,0,1,3.969-3.47,12.072,12.072,0,0,0,8.413,4.043,2.636,2.636,0,0,1-.232,5.267c-.557-.025-1.112-.079-1.662-.157" transform="translate(14.598 6.546)" fill="#036067"/>
    <path id="Path_17183" data-name="Path 17183" d="M177.969,63.637a2.635,2.635,0,0,1-.575-3.682l2.807-3.843a2.635,2.635,0,0,1,4.256,3.109l-2.806,3.843a2.635,2.635,0,0,1-3.682.574" transform="translate(15.993 4.975)" fill="#036067"/>
    <path id="Path_17184" data-name="Path 17184" d="M163.33,61.579a2.636,2.636,0,0,1-1.054-3.561l2.318-4.3a2.634,2.634,0,0,1,3.57-1.071l.016.009a2.638,2.638,0,0,1,1.054,3.562l-2.318,4.3a2.637,2.637,0,0,1-3.571,1.071Z" transform="translate(14.643 4.731)" fill="#036067"/>
    <path id="Path_17185" data-name="Path 17185" d="M228.715,133a2.635,2.635,0,0,1-2.255-2.717,22.347,22.347,0,0,0-6.339-16.187,11.537,11.537,0,0,0-9.21-3.5,12.268,12.268,0,0,0-6.607,2.815c-2.731,2.2-4.427,5.556-5.182,10.259a2.67,2.67,0,0,1-3.02,2.184,2.635,2.635,0,0,1-2.183-3.019c.956-5.966,3.34-10.517,7.08-13.53a17.525,17.525,0,0,1,9.472-3.963,16.821,16.821,0,0,1,13.3,4.948,27.919,27.919,0,0,1,7.957,20.209,2.636,2.636,0,0,1-2.742,2.525,2.692,2.692,0,0,1-.268-.025" transform="translate(17.529 9.519)" fill="#036067"/>
    <path id="Path_17186" data-name="Path 17186" d="M204.762,136.249a2.635,2.635,0,0,1-2.251-2.8c.362-5.02-.246-7.708-1.846-12.208a2.635,2.635,0,0,1,4.967-1.763,30.68,30.68,0,0,1,2.135,14.351,2.638,2.638,0,0,1-2.819,2.439c-.063-.005-.125-.012-.186-.021" transform="translate(18.129 10.644)" fill="#036067"/>
    <path id="Path_17187" data-name="Path 17187" d="M211.167,140.007a2.58,2.58,0,0,1-.265-.052,2.634,2.634,0,0,1-1.921-3.193,23.267,23.267,0,0,0-1.206-14.757,2.635,2.635,0,1,1,4.839-2.087,28.564,28.564,0,0,1,1.481,18.116,2.635,2.635,0,0,1-2.928,1.973" transform="translate(18.766 10.698)" fill="#036067"/>
    <path id="Path_17188" data-name="Path 17188" d="M218.257,135.207a2.635,2.635,0,0,1-2.252-2.8c.363-5.07.023-7.353-1.726-11.622a2.636,2.636,0,0,1,4.879-2c2.075,5.067,2.526,8.076,2.1,13.994a2.635,2.635,0,0,1-2.815,2.441c-.064-.005-.128-.012-.19-.021" transform="translate(19.356 10.592)" fill="#036067"/>
    <path id="Path_17189" data-name="Path 17189" d="M111.092,148.061a2.632,2.632,0,0,1-2.122-1.761,27.926,27.926,0,0,1,1.916-21.634,16.824,16.824,0,0,1,11.358-8.506,17.514,17.514,0,0,1,10.2,1.123c4.441,1.834,8.013,5.526,10.617,10.975a2.635,2.635,0,1,1-4.755,2.272c-2.053-4.3-4.629-7.036-7.873-8.377a12.309,12.309,0,0,0-7.131-.831,11.545,11.545,0,0,0-7.846,5.96,22.353,22.353,0,0,0-1.5,17.32,2.636,2.636,0,0,1-2.868,3.458" transform="translate(9.731 10.473)" fill="#036067"/>
    <path id="Path_17190" data-name="Path 17190" d="M132.833,144.718a2.634,2.634,0,0,1-2.1-1.684,30.7,30.7,0,0,1-2.01-14.368,2.635,2.635,0,0,1,5.262.288c-.262,4.765-.085,7.517,1.683,12.229a2.636,2.636,0,0,1-2.839,3.535" transform="translate(11.629 11.408)" fill="#036067"/>
    <path id="Path_17191" data-name="Path 17191" d="M127.762,150.13a2.631,2.631,0,0,1-1.9-1.275,28.585,28.585,0,0,1-3.7-17.8,2.635,2.635,0,0,1,5.233.632,23.278,23.278,0,0,0,3.015,14.495,2.635,2.635,0,0,1-2.645,3.943" transform="translate(11.026 11.64)" fill="#036067"/>
    <path id="Path_17192" data-name="Path 17192" d="M119.605,147.536a2.638,2.638,0,0,1-2.1-1.686c-2.076-5.556-2.493-8.57-1.938-14.017a2.636,2.636,0,0,1,5.244.535c-.47,4.592-.149,6.875,1.631,11.636a2.632,2.632,0,0,1-1.545,3.39,2.6,2.6,0,0,1-1.294.142" transform="translate(10.429 11.705)" fill="#036067"/>
    <path id="Path_17193" data-name="Path 17193" d="M152.06,139.578a2.181,2.181,0,0,1-.313-4.339l43.354-6.344a2.181,2.181,0,0,1,.631,4.316l-43.354,6.344a2.256,2.256,0,0,1-.318.023" transform="translate(13.551 11.652)" fill="#036067"/>
  </g>
</svg>
