<svg id="Group_39067" data-name="Group 39067" xmlns="http://www.w3.org/2000/svg" xmlns:xlink="http://www.w3.org/1999/xlink" width="186.554" height="224.211" viewBox="0 0 186.554 224.211">
  <defs>
    <clipPath id="clip-path">
      <rect id="Rectangle_4104" data-name="Rectangle 4104" width="186.554" height="224.211" fill="none"/>
    </clipPath>
  </defs>
  <g id="Group_39066" data-name="Group 39066" clip-path="url(#clip-path)">
    <path id="Path_16924" data-name="Path 16924" d="M309.875,48.228a17.05,17.05,0,0,1,6.7-14.686c4.571-3.261,10.731-2.763,15.785-.314C335.815,34.9,346.04,45.4,335.5,58.278c-3.8,4.641-10.779,6.75-16.131,4.038" transform="translate(-153.587 -15.487)" fill="#b072f3"/>
    <path id="Path_16925" data-name="Path 16925" d="M264.194,78.188c-.734,16.465-5.631,19.213-16.659,35.649-.352.525-.459-.8-.605-1.407-.313-1.306-2.32-17.6-2.29-19.305.03-1.468,1.155-2.5,1.785-3.8a6.733,6.733,0,0,0,.373-4.882,6.314,6.314,0,0,0-2.754-3.651c-2.073-1.052-4.326.492-6.333.84-2.192.379-3.812-1.438-4.751-3.262-.955-1.853-1.58-3.986-3.176-5.328-1.971-1.655-4.8-1.613-7.361-1.831a28.972,28.972,0,0,1-13.086-4.434c-1.117-.714-3.263-2.244-4.624-1.169-.7.555-.88,2.158-1.189,2.976-.785,2.075-1.568,4.162-2.209,6.287-7.784-2.744-13.165-11.423-10.917-19.644,2.669-9.762,11.476-12.508,20.6-10.4,4.481,1.035,8.079,3.753,12.324,5.261,3.8,1.351,6.7-.759,10.556-1.34,8.049-1.211,16.775,1.432,22.382,7.434,7.994,8.559,7.987,20.688,7.928,22.006" transform="translate(-94.123 -21.889)" fill="#b072f3"/>
    <path id="Path_16926" data-name="Path 16926" d="M274.739,220.4a20.638,20.638,0,0,1-6.627-1.1,1.513,1.513,0,1,1,.972-2.865,17.275,17.275,0,0,0,19.721-6.349,1.513,1.513,0,1,1,2.468,1.75,20.548,20.548,0,0,1-12.431,8.14,20.081,20.081,0,0,1-4.1.422" transform="translate(-132.39 -103.822)" fill="#006067"/>
    <path id="Path_16927" data-name="Path 16927" d="M48.267,240.258a1.514,1.514,0,0,1-1.4-.936l-9.441-22.871a5.554,5.554,0,0,1,5.177-7.567h78.94a5.585,5.585,0,0,1,5.193,3.583l4.324,12.54a1.513,1.513,0,0,1-2.86.986l-4.308-12.5a2.53,2.53,0,0,0-2.348-1.587H42.6a2.529,2.529,0,0,0-2.364,3.426l9.425,22.83a1.514,1.514,0,0,1-1.4,2.091" transform="translate(-18.367 -103.54)" fill="#006067"/>
    <path id="Path_16928" data-name="Path 16928" d="M145.062,320.976a1.513,1.513,0,0,1-.007-3.026l21.235-.1h.007a1.513,1.513,0,0,1,.007,3.026l-21.235.1Z" transform="translate(-71.155 -157.554)" fill="#006067"/>
    <path id="Path_16929" data-name="Path 16929" d="M134.2,234.608l5.838,16.887,11.706-13.5Z" transform="translate(-66.523 -116.291)" fill="#fffba9"/>
    <path id="Path_16930" data-name="Path 16930" d="M137.16,265.051a1.494,1.494,0,0,1-.287-.028,1.514,1.514,0,0,1-1.143-.991l-5.076-14.683a1.513,1.513,0,0,1,1.717-1.98l15.254,2.945a1.512,1.512,0,0,1,.856,2.476L138.3,264.528a1.513,1.513,0,0,1-1.143.522m-2.79-14.214,3.364,9.729,6.744-7.778Z" transform="translate(-64.722 -122.603)" fill="#006067"/>
    <path id="Path_16931" data-name="Path 16931" d="M221.412,142.581a19.506,19.506,0,0,1-3.807-.353,10.5,10.5,0,0,1-7.256-4.631,47.08,47.08,0,0,1-5.585-13.982,4.47,4.47,0,0,1-2.568-.009,3.473,3.473,0,0,1-2.148-2.2c-.653-1.753.268-3.069,1.081-4.23a11.148,11.148,0,0,0,2.123-4.716,11.809,11.809,0,0,0,.182-1.812c.1-3.2.756-14.325,4.786-23.176a1.513,1.513,0,0,1,2.754,1.254c-3.8,8.34-4.417,18.962-4.516,22.02a14.887,14.887,0,0,1-.232,2.274,14.138,14.138,0,0,1-2.618,5.89c-.684.978-.806,1.22-.724,1.44.123.331.246.374.291.389a3.136,3.136,0,0,0,1.909-.511,1.517,1.517,0,0,1,2.277,1.009,44.413,44.413,0,0,0,5.578,14.792,7.479,7.479,0,0,0,5.257,3.227c5.583,1.116,13.33-1.076,17.065-3.82a1.513,1.513,0,0,1,1.792,2.439c-3.455,2.538-9.84,4.7-15.642,4.7" transform="translate(-99.051 -42.922)" fill="#006067"/>
    <path id="Path_16932" data-name="Path 16932" d="M285.576,130.915a1.513,1.513,0,0,1-.419-2.967,8.539,8.539,0,0,0,4.781-3.276,5.325,5.325,0,0,0,.319-5.794,3.72,3.72,0,0,0-3.609-1.917,3.178,3.178,0,0,0-2.063,1.209,2.621,2.621,0,0,0-.61,1.926,1.513,1.513,0,1,1-3,.369,5.618,5.618,0,0,1,1.236-4.168,6.18,6.18,0,0,1,4.1-2.343,6.751,6.751,0,0,1,6.538,3.352,8.332,8.332,0,0,1-.394,9.055A11.554,11.554,0,0,1,286,130.855a1.5,1.5,0,0,1-.421.06" transform="translate(-139.253 -56.465)" fill="#006067"/>
    <path id="Path_16933" data-name="Path 16933" d="M221.9,129.257h-.045a1.513,1.513,0,0,1-1.458-1.339l-.209-1.815a1.513,1.513,0,1,1,3.006-.346l.17,1.475a1.506,1.506,0,0,1,.039.7l-.013.074a1.513,1.513,0,0,1-1.49,1.251" transform="translate(-109.139 -61.671)" fill="#006067"/>
    <path id="Path_16934" data-name="Path 16934" d="M259.53,206.92a1.513,1.513,0,0,1-1.511-1.454c-.087-2.247-.109-5.016-.131-7.7-.022-2.656-.043-5.4-.129-7.6a1.513,1.513,0,1,1,3.023-.117c.087,2.247.11,5.016.132,7.7.021,2.656.043,5.4.129,7.6a1.514,1.514,0,0,1-1.454,1.57h-.059" transform="translate(-127.766 -93.484)" fill="#006067"/>
    <path id="Path_16935" data-name="Path 16935" d="M259.406,198.016h-.039a1.513,1.513,0,0,1-1.474-1.47c-.009-.3-.01-.7.014-1.192-.013-1.774-.094-5.353-.166-7.955a1.514,1.514,0,0,1,1.033-1.476,20.3,20.3,0,0,0,5.082-2.653,1.513,1.513,0,0,1,1.852,2.392,13.082,13.082,0,0,0-4.777,9.759c0,.577,0,1.008-.018,1.2a1.513,1.513,0,0,1-1.507,1.394" transform="translate(-127.757 -90.688)" fill="#006067"/>
    <path id="Path_16936" data-name="Path 16936" d="M222.554,169.657a1.513,1.513,0,0,1-.558-2.92,4.914,4.914,0,0,0,2.545-2.291,1.513,1.513,0,1,1,2.7,1.374,7.978,7.978,0,0,1-4.127,3.73,1.5,1.5,0,0,1-.557.107" transform="translate(-109.566 -81.103)" fill="#006067"/>
    <path id="Path_16937" data-name="Path 16937" d="M120.875,327.968c-8.663,0-22.721-3.339-43.713-17.237-15.378-10.18-28.317-22.2-32.684-28.333-6.382-8.7-7.688-17.842-3.979-27.937a1.513,1.513,0,0,1,2.84,1.044c-3.332,9.068-2.157,17.285,3.591,25.12,8.516,11.967,48.074,44.318,73.881,44.32q1.334,0,2.616-.117c7.555-.7,13.047-4.634,16.324-11.7,1.275-2.749,5.43-15.5,12.942-42.379a1.513,1.513,0,1,1,2.914.814c-7.553,27.027-11.725,39.85-13.111,42.839-3.763,8.112-10.085,12.634-18.791,13.438-.87.08-1.814.127-2.831.127" transform="translate(-19.057 -125.641)" fill="#006067"/>
    <path id="Path_16938" data-name="Path 16938" d="M127.967,286.987a1.505,1.505,0,0,1-.6-.125L80.011,266.369a1.512,1.512,0,0,1-.889-1.649,14.421,14.421,0,0,0-1.345-8.2c-1.161-2.664-5.343-8.38-5.385-8.437a1.516,1.516,0,0,1-.27-.632c-.037-.208-.085-.516-.145-.906-1.574-10.164-3.4-13.1-4.659-13.781a.972.972,0,0,0-.937-.01c-.141.194-.928,1.635.167,8.611.7,4.49,1.9,9.494,2.616,12.484l.112.467a1.513,1.513,0,0,1-2.943.7l-.111-.466c-3.988-16.675-4.29-23.093-1.153-24.526a4.005,4.005,0,0,1,3.685.074c3.615,1.948,5.22,9.564,6.214,15.983.029.19.056.36.079.506a66.175,66.175,0,0,1,5.5,8.723,18.2,18.2,0,0,1,1.7,8.73l44.8,19.388c1.574-4.874,2.676-9.954,3.745-14.882,3.735-17.223,7.6-35.032,31.374-49.227a1.513,1.513,0,0,1,1.551,2.6c-22.649,13.521-26.2,29.915-29.968,47.27a143.02,143.02,0,0,1-4.362,16.781,1.513,1.513,0,0,1-1.428,1.016" transform="translate(-31.201 -108.608)" fill="#006067"/>
    <path id="Path_16939" data-name="Path 16939" d="M226.355,326.271a39.794,39.794,0,0,1-19.71-5.231,1.513,1.513,0,0,1,1.5-2.628,36.653,36.653,0,0,0,18.5,4.832h.012a1.513,1.513,0,0,1,.012,3.026h-.311" transform="translate(-102.052 -157.733)" fill="#006067"/>
    <path id="Path_16940" data-name="Path 16940" d="M331.228,304.921a1.513,1.513,0,0,1-1.492-1.27c-1.734-10.674-1.713-22.073-1.691-33.1.046-23.983.089-46.636-17.656-58.329a1.513,1.513,0,1,1,1.665-2.526c19.109,12.591,19.064,36.038,19.017,60.86-.021,10.9-.042,22.176,1.652,32.606a1.513,1.513,0,0,1-1.25,1.736,1.552,1.552,0,0,1-.245.02" transform="translate(-153.517 -103.821)" fill="#006067"/>
    <path id="Path_16941" data-name="Path 16941" d="M302.486,174.343a1.514,1.514,0,0,1-1.364-.857c-3.581-7.438-4.9-21.946-5.541-28.919-.143-1.568-.256-2.808-.338-3.31a1.513,1.513,0,1,1,2.987-.487c.1.608.2,1.768.365,3.522.62,6.8,1.91,20.936,5.254,27.88a1.514,1.514,0,0,1-1.362,2.17" transform="translate(-146.337 -69.148)" fill="#006067"/>
    <path id="Path_16942" data-name="Path 16942" d="M159.293,407.3c-.045,0-.091,0-.137-.006a78.611,78.611,0,0,1-47.815-22.063,1.513,1.513,0,0,1,2.117-2.162,75.575,75.575,0,0,0,45.969,21.212,1.513,1.513,0,0,1-.134,3.02" transform="translate(-54.965 -189.666)" fill="#006067"/>
    <path id="Path_16943" data-name="Path 16943" d="M159.314,430.041a1.527,1.527,0,0,1-.311-.032,92.938,92.938,0,0,1-29.968-11.964,1.513,1.513,0,0,1,1.592-2.574,89.916,89.916,0,0,0,28.995,11.576,1.513,1.513,0,0,1-.308,2.994" transform="translate(-63.605 -205.83)" fill="#006067"/>
    <path id="Path_16944" data-name="Path 16944" d="M322.062,76.351a1.513,1.513,0,0,1-1.412-.968c-1.877-4.856-4-7.965-7.343-10.732a1.513,1.513,0,1,1,1.931-2.329,27.131,27.131,0,0,1,8.235,11.971,1.514,1.514,0,0,1-1.411,2.059" transform="translate(-155.03 -30.719)" fill="#006067"/>
    <path id="Path_16945" data-name="Path 16945" d="M67.418,22.45A22.45,22.45,0,1,1,44.969,0a22.45,22.45,0,0,1,22.45,22.45" transform="translate(-11.162)" fill="#fffba9"/>
    <path id="Path_16946" data-name="Path 16946" d="M60.854,118.279H55.135a3.883,3.883,0,0,1-3.878-3.878v-2.063a1.513,1.513,0,0,1,1.513-1.513H63.219a1.513,1.513,0,0,1,1.513,1.513V114.4a3.882,3.882,0,0,1-3.878,3.878m-6.571-4.428v.55a.853.853,0,0,0,.852.852h5.719a.853.853,0,0,0,.852-.852v-.55Z" transform="translate(-25.407 -54.934)" fill="#006067"/>
    <path id="Path_16947" data-name="Path 16947" d="M51.42,63H40.144a3.882,3.882,0,0,1-3.878-3.878V51.413a15.364,15.364,0,0,0-4.294-10.72A19.163,19.163,0,0,1,45.58,8.246h.2A19.163,19.163,0,0,1,59.763,40.514a15.958,15.958,0,0,0-4.465,10.9v7.709A3.883,3.883,0,0,1,51.42,63M45.779,11.271h-.168A16.137,16.137,0,0,0,34.15,38.594a18.374,18.374,0,0,1,5.141,12.819v7.713a.853.853,0,0,0,.852.852H51.42a.853.853,0,0,0,.852-.852V51.416a18.973,18.973,0,0,1,5.284-12.973A16.168,16.168,0,0,0,45.779,11.271" transform="translate(-13.194 -4.087)" fill="#006067"/>
    <path id="Path_16948" data-name="Path 16948" d="M63.265,96.373H47.553a1.513,1.513,0,1,1,0-3.026H63.265a1.513,1.513,0,1,1,0,3.026" transform="translate(-22.821 -46.271)" fill="#006067"/>
    <path id="Path_16949" data-name="Path 16949" d="M76.765,29.374a1.513,1.513,0,0,1-1.45-1.084A9.424,9.424,0,0,0,68.1,21.705a1.513,1.513,0,0,1,.592-2.968,12.443,12.443,0,0,1,9.524,8.694,1.514,1.514,0,0,1-1.451,1.943" transform="translate(-33.153 -9.273)" fill="#006067"/>
    <path id="Path_16950" data-name="Path 16950" d="M11.822,68.022a1.513,1.513,0,0,1-1.069-2.584l2.373-2.37a1.513,1.513,0,0,1,2.138,2.141l-2.373,2.37a1.508,1.508,0,0,1-1.069.442" transform="translate(-5.11 -31.043)" fill="#006067"/>
    <path id="Path_16951" data-name="Path 16951" d="M109.734,22.943a1.513,1.513,0,0,1-1.07-2.583l2.373-2.373a1.513,1.513,0,0,1,2.14,2.139L110.8,22.5a1.507,1.507,0,0,1-1.07.443" transform="translate(-53.643 -8.696)" fill="#006067"/>
    <path id="Path_16952" data-name="Path 16952" d="M4.869,45.462H1.513a1.513,1.513,0,1,1,0-3.026H4.869a1.513,1.513,0,1,1,0,3.026" transform="translate(0 -21.035)" fill="#006067"/>
    <path id="Path_16953" data-name="Path 16953" d="M121.449,45.462h-3.356a1.513,1.513,0,1,1,0-3.026h3.356a1.513,1.513,0,0,1,0,3.026" transform="translate(-57.787 -21.035)" fill="#006067"/>
    <path id="Path_16954" data-name="Path 16954" d="M112.106,68.022a1.508,1.508,0,0,1-1.069-.442l-2.373-2.37a1.513,1.513,0,0,1,2.139-2.141l2.373,2.37a1.513,1.513,0,0,1-1.069,2.584" transform="translate(-53.643 -31.043)" fill="#006067"/>
    <path id="Path_16955" data-name="Path 16955" d="M14.195,22.943a1.507,1.507,0,0,1-1.07-.443l-2.373-2.373a1.513,1.513,0,0,1,2.139-2.139l2.373,2.373a1.513,1.513,0,0,1-1.07,2.583" transform="translate(-5.11 -8.696)" fill="#006067"/>
    <path id="Path_16956" data-name="Path 16956" d="M241.1,95.556a1.508,1.508,0,0,1-1.07-.443,12.53,12.53,0,0,1-3.452-6.241,31.61,31.61,0,0,1-20.378-5.63c-.425-.3-.844-.613-1.263-.925a20.18,20.18,0,0,0-3.266-2.132,4.989,4.989,0,0,0-4.22-.334,1.513,1.513,0,1,1-1.312-2.726,7.949,7.949,0,0,1,6.836.329,22.859,22.859,0,0,1,3.77,2.437c.4.3.8.594,1.2.88a28.5,28.5,0,0,0,19.567,4.972,1.517,1.517,0,0,1,1.633,1.09l.141.5c.719,2.556,1.08,3.839,2.882,5.642a1.513,1.513,0,0,1-1.07,2.583" transform="translate(-101.757 -37.92)" fill="#006067"/>
  </g>
</svg>
