<svg id="Group_39065" data-name="Group 39065" xmlns="http://www.w3.org/2000/svg" xmlns:xlink="http://www.w3.org/1999/xlink" width="309.951" height="224.211" viewBox="0 0 309.951 224.211">
  <defs>
    <clipPath id="clip-path">
      <rect id="Rectangle_4103" data-name="Rectangle 4103" width="309.951" height="224.211" fill="none"/>
    </clipPath>
  </defs>
  <g id="Group_39064" data-name="Group 39064" clip-path="url(#clip-path)">
    <path id="Path_16892" data-name="Path 16892" d="M199.736,21.9A28.385,28.385,0,0,0,198.71,10.28C197.336,5.419,194,.973,188.717.178a13.37,13.37,0,0,0-10.688,2.675c-2.505,2.141-3.7,5.363-4.205,8.54-.144.91.141,2.549-.208,3.34,1.192-2.708-.668-6.1-3.43-7.154s-5.985-.152-8.328,1.654a16.8,16.8,0,0,0-3.684,4.16c-.2.3-2,4.191-2.07,4.2,2.352-.212,2.612-3.692,1.184-5.068-1.6-1.542-4.168-1.461-6.305-.85a17.228,17.228,0,0,0-7.3,4.318c-2.117,2.074-2.98,1.875-5.953,2.026a25.527,25.527,0,0,0-24.375,25.615c.038,9.614,4.78,19.713,9.474,27.908,4.666,8.143,10.619,15.462,16.544,22.74.937,1.151,2.2,3.177,3.728,3.45a1.853,1.853,0,0,0,2.275-2.383c-.673-2.007-.54-3.9-.757-6.012-.492-4.775-3.741-9.427-4.234-14.2-.072-.7-.436-1-.848-1.578-.593-.828-.829-.9-1.584-.941a4.115,4.115,0,0,1-2.138-.869,8.963,8.963,0,0,1-2.834-3.075,9.082,9.082,0,0,1-.638-7.1c1.534-4.643,9.605-3.618,10.27,1.087.18,1.276-1.322,2.867.134,3.41a4.6,4.6,0,0,0,5.559-2.64c.829-2.506-1.841-5.212-2.737-7.383a14.044,14.044,0,0,1-.9-5.2,14.577,14.577,0,0,1,4.074-10.138c3.363-3.478,8.192-4.475,12.812-5.026,4.854-.58,9.7-.983,14.368-2.478,1.172-.375,3.8-2,4.938-1.865,1.014.123,3.385,6.25,3.578,6.2,7.216-1.928,14.209-8.117,15.3-15.639" transform="translate(-48.875 0)" fill="#ffc3b5"/>
    <path id="Path_16893" data-name="Path 16893" d="M24.377,189.369a1.725,1.725,0,0,1-.246-.018,1.707,1.707,0,0,1-1.445-1.933c.394-2.725.648-5.322-.539-7.146a6.31,6.31,0,0,0-4.373-2.483,22.575,22.575,0,0,0-6.1.183l-7.555.9a1.706,1.706,0,0,1-.406-3.388l7.555-.9a25.457,25.457,0,0,1,7.049-.164,9.7,9.7,0,0,1,6.692,3.99c1.989,3.053,1.428,6.931,1.057,9.5a1.707,1.707,0,0,1-1.687,1.462" transform="translate(-0.951 -75.124)" fill="#006067"/>
    <path id="Path_16894" data-name="Path 16894" d="M18.392,201.86a1.675,1.675,0,0,1-.443-.059,1.706,1.706,0,0,1-1.206-2.09,5.606,5.606,0,0,0-1.493-5.051,10.511,10.511,0,0,0-5.4-2.826,34.617,34.617,0,0,0-6.837-.57,1.707,1.707,0,0,1,.03-3.413h.03a37.137,37.137,0,0,1,7.52.652,13.671,13.671,0,0,1,7.159,3.838,8.955,8.955,0,0,1,2.284,8.253,1.708,1.708,0,0,1-1.647,1.265" transform="translate(-0.577 -80.997)" fill="#006067"/>
    <path id="Path_16895" data-name="Path 16895" d="M11.5,213.571a9.479,9.479,0,0,1-1.776-.179,18.381,18.381,0,0,1-7.509-3.323,1.706,1.706,0,0,1,2.046-2.731,14.955,14.955,0,0,0,6.107,2.7c1.21.232,2.192.11,2.5-.311a1.32,1.32,0,0,0,.106-1.039,4.649,4.649,0,0,0-.9-1.642,13.6,13.6,0,0,0-10.4-5.246,1.707,1.707,0,0,1,.025-3.413h.026a16.852,16.852,0,0,1,13.059,6.592,8.11,8.11,0,0,1,1.5,2.889,4.63,4.63,0,0,1-.677,3.891,4.867,4.867,0,0,1-4.114,1.809" transform="translate(0 -85.541)" fill="#006067"/>
    <path id="Path_16896" data-name="Path 16896" d="M457.136,243.245H372.429a6.744,6.744,0,0,1-6.729-7.223l.9-12.7a1.706,1.706,0,1,1,3.4.241l-.9,12.7a3.333,3.333,0,0,0,3.325,3.568h84.707a3.345,3.345,0,0,0,3.325-3.1l3.743-52.758a3.334,3.334,0,0,0-3.325-3.569H376.172a3.345,3.345,0,0,0-3.325,3.1l-.126,1.778a1.706,1.706,0,0,1-3.4-.241l.126-1.778a6.769,6.769,0,0,1,6.729-6.269h84.707a6.746,6.746,0,0,1,6.729,7.223l-3.743,52.758a6.768,6.768,0,0,1-6.729,6.268" transform="translate(-157.674 -76.316)" fill="#006067"/>
    <path id="Path_16897" data-name="Path 16897" d="M224.506,177.572a1.707,1.707,0,0,1-1.68-1.418l-2.772-16.176a1.706,1.706,0,1,1,3.364-.576l2.772,16.175a1.707,1.707,0,0,1-1.394,1.97,1.74,1.74,0,0,1-.291.024" transform="translate(-94.872 -68.118)" fill="#006067"/>
    <path id="Path_16898" data-name="Path 16898" d="M205.938,115.812a29.293,29.293,0,0,1-5.437-.461,1.707,1.707,0,1,1,.646-3.352c5.5,1.061,15.185-.051,19.909-3.122,3.886-2.527,5.261-25.841,3.867-32.84-1.1-5.5-4.055-12.786-6.432-18.64-.553-1.365-1.084-2.668-1.562-3.879a1.706,1.706,0,0,1,3.174-1.254c.475,1.2,1,2.5,1.551,3.849,2.431,5.987,5.458,13.439,6.617,19.258,1.174,5.893.923,32.287-5.353,36.368-4.2,2.733-11.126,4.073-16.978,4.073" transform="translate(-85.854 -22.07)" fill="#006067"/>
    <path id="Path_16899" data-name="Path 16899" d="M187.713,196.918a47.1,47.1,0,0,1-10.991-1.434,1.706,1.706,0,1,1,.8-3.318,38.25,38.25,0,0,0,14.224,1.069,20.7,20.7,0,0,0,12.236-5.877,1.706,1.706,0,1,1,2.477,2.348,24.109,24.109,0,0,1-14.243,6.911,32.75,32.75,0,0,1-4.5.3" transform="translate(-75.634 -80.555)" fill="#006067"/>
    <path id="Path_16900" data-name="Path 16900" d="M21.5,250.473q-.753,0-1.5-.04a1.706,1.706,0,1,1,.185-3.408,25.376,25.376,0,0,0,14.7-3.8,1.707,1.707,0,0,1,1.815,2.891,28.794,28.794,0,0,1-15.195,4.36" transform="translate(-7.926 -104.759)" fill="#006067"/>
    <path id="Path_16901" data-name="Path 16901" d="M208.751,131.756a11.817,11.817,0,0,1-9.64-5.048,1.707,1.707,0,0,1,2.822-1.92,8.406,8.406,0,0,0,7.891,3.479,1.707,1.707,0,0,1,.486,3.379,10.937,10.937,0,0,1-1.559.11" transform="translate(-85.724 -53.484)" fill="#006067"/>
    <path id="Path_16902" data-name="Path 16902" d="M230.923,85.344a1.708,1.708,0,0,1-1.658-1.306l-.447-1.848a1.706,1.706,0,0,1,3.317-.8l.447,1.848a1.709,1.709,0,0,1-1.66,2.108" transform="translate(-98.641 -34.529)" fill="#006067"/>
    <path id="Path_16903" data-name="Path 16903" d="M200.532,91.172a1.707,1.707,0,0,1-1.658-1.306l-.447-1.848a1.706,1.706,0,0,1,3.317-.8l.447,1.848a1.707,1.707,0,0,1-1.258,2.06,1.686,1.686,0,0,1-.4.048" transform="translate(-85.536 -37.042)" fill="#006067"/>
    <path id="Path_16904" data-name="Path 16904" d="M504.942,251.347h-9.577l3.5-38.128h9.577Z" transform="translate(-213.59 -91.935)" fill="#00e3e2"/>
    <path id="Path_16905" data-name="Path 16905" d="M480.359,260.892h-9.577l2.744-25.536H483.1Z" transform="translate(-202.99 -101.48)" fill="#0299b0"/>
    <path id="Path_16906" data-name="Path 16906" d="M455.776,269.794H446.2l1.7-13.792h9.577Z" transform="translate(-192.391 -110.382)" fill="#00e3e2"/>
    <path id="Path_16907" data-name="Path 16907" d="M215.559,170l-1.542-9.017a37.143,37.143,0,0,1-11.89.063s11.716,1.791,13.432,8.954" transform="translate(-87.152 -69.412)" fill="#006067"/>
    <path id="Path_16908" data-name="Path 16908" d="M214.263,170.415a1.707,1.707,0,0,1-1.658-1.309c-.717-2.993-3.826-4.9-6.308-5.966a26.936,26.936,0,0,0-5.661-1.69l-.08-.013a1.706,1.706,0,0,1,.536-3.37l.152.025a35.8,35.8,0,0,0,11.15-.075,1.707,1.707,0,0,1,2.012,1.386l1.542,9.018a1.712,1.712,0,0,1-1.684,1.995m-3.456-8.731q.3.2.6.406l-.08-.465c-.162.02-.335.04-.516.059" transform="translate(-85.859 -68.119)" fill="#006067"/>
    <path id="Path_16909" data-name="Path 16909" d="M209.347,28.784a1.707,1.707,0,0,1-.932-3.138,9.831,9.831,0,0,0,4.251-6.416,1.707,1.707,0,1,1,3.361.6,13.31,13.31,0,0,1-5.751,8.681,1.7,1.7,0,0,1-.928.275" transform="translate(-89.529 -7.685)" fill="#006067"/>
    <path id="Path_16910" data-name="Path 16910" d="M180.7,30.664a1.706,1.706,0,0,1-.891-3.163,13.669,13.669,0,0,0,4.778-4.955,1.707,1.707,0,1,1,2.975,1.672,17.1,17.1,0,0,1-5.973,6.2,1.707,1.707,0,0,1-.888.25" transform="translate(-77.179 -9.346)" fill="#006067"/>
    <path id="Path_16911" data-name="Path 16911" d="M191.508,58.07a1.706,1.706,0,0,1-.1-3.41,76.629,76.629,0,0,0,11.039-1.289,34.167,34.167,0,0,0,7.052-2.245,40.044,40.044,0,0,0,6.68-4.112,1.707,1.707,0,1,1,1.992,2.772,43.009,43.009,0,0,1-7.264,4.45,37.56,37.56,0,0,1-7.759,2.476,79.566,79.566,0,0,1-11.534,1.355c-.035,0-.07,0-.1,0" transform="translate(-81.839 -20.133)" fill="#006067"/>
    <path id="Path_16912" data-name="Path 16912" d="M220.732,93.474a31.438,31.438,0,0,0,6.877,10.783c.8.819,1.719,1.866,1.362,2.954a2.849,2.849,0,0,1-2.155,1.523,19.575,19.575,0,0,1-5.738.67" transform="translate(-95.174 -40.304)" fill="#fff"/>
    <path id="Path_16913" data-name="Path 16913" d="M220.419,109.827q-.345,0-.691-.012a1.705,1.705,0,0,1-1.65-1.761,1.727,1.727,0,0,1,1.761-1.65,17.881,17.881,0,0,0,5.237-.61,2.462,2.462,0,0,0,.965-.411,3.7,3.7,0,0,0-.948-1.228,33.319,33.319,0,0,1-7.251-11.37,1.707,1.707,0,0,1,3.192-1.21,29.855,29.855,0,0,0,6.5,10.2c.738.756,2.466,2.527,1.763,4.677-.625,1.9-2.66,2.458-3.329,2.639a21.239,21.239,0,0,1-5.551.739" transform="translate(-93.88 -39.01)" fill="#006067"/>
    <path id="Path_16914" data-name="Path 16914" d="M156.318,158.537a1.708,1.708,0,0,1-1.671-2.062,75.849,75.849,0,0,0,.313-30.237,18.619,18.619,0,0,0-3.076-6.991,25.321,25.321,0,0,0-2.871-3.109c-3.135-3.065-7.039-6.879-4.929-12.256a6.387,6.387,0,0,1,5.358-3.888,7.252,7.252,0,0,1,5.929,2.441,8.8,8.8,0,0,1,2.152,5.788,1.706,1.706,0,0,1-1.7,1.716h-.01a1.707,1.707,0,0,1-1.706-1.7,5.348,5.348,0,0,0-1.277-3.524,3.869,3.869,0,0,0-3.111-1.321,2.947,2.947,0,0,0-2.461,1.732c-1.2,3.051.765,5.272,4.138,8.569a28.129,28.129,0,0,1,3.267,3.573,22.046,22.046,0,0,1,3.638,8.287,79.351,79.351,0,0,1-.318,31.628,1.707,1.707,0,0,1-1.668,1.352" transform="translate(-61.867 -43.105)" fill="#006067"/>
    <path id="Path_16915" data-name="Path 16915" d="M410.049,235.619a1.707,1.707,0,0,1-1.072-3.036l12.354-9.949a1.707,1.707,0,0,1,2.642.663l1.338,3.155,8.06-7.331a1.705,1.705,0,0,1,2.56.3l1.386,2.04,11.8-10.481h-1.344a1.706,1.706,0,0,1,0-3.413h5.834a1.707,1.707,0,0,1,1.133,2.983l-16.611,14.754a1.707,1.707,0,0,1-2.544-.317l-1.372-2.02-8.384,7.627a1.706,1.706,0,0,1-2.719-.6l-1.4-3.291-10.594,8.532a1.7,1.7,0,0,1-1.069.377" transform="translate(-176.067 -89.499)" fill="#006067"/>
    <path id="Path_16916" data-name="Path 16916" d="M486.626,216.6a1.706,1.706,0,0,1-1.707-1.706v-5.615a1.706,1.706,0,0,1,3.413,0v5.615a1.706,1.706,0,0,1-1.706,1.706" transform="translate(-209.086 -89.499)" fill="#006067"/>
    <path id="Path_16917" data-name="Path 16917" d="M46.235,301.771c-.18,0-.348-.005-.5-.014-7.16-.422-17.812-5.439-27.9-26.947-6.17-13.156-10.792-30.244-11.776-43.533a1.707,1.707,0,0,1,3.4-.252c.954,12.907,5.453,29.525,11.461,42.335,7.314,15.6,16.2,24.47,25.01,24.988q.173.011.373.011c4.683,0,20.264-4.363,37.776-24.755a1.707,1.707,0,1,1,2.59,2.224c-18.4,21.428-34.92,25.942-40.435,25.942" transform="translate(-2.609 -98.932)" fill="#006067"/>
    <path id="Path_16918" data-name="Path 16918" d="M279.729,259.372a1.688,1.688,0,0,1-.4-.048,1.707,1.707,0,0,1-1.209-1.093c-18.264-51.991-26.695-65.144-42.955-67.02a1.707,1.707,0,0,1,.391-3.391c17.684,2.04,26.668,15.246,44.9,66.787,5.616-5.415,12.885-12.905,18.406-21.014a42.362,42.362,0,0,1-.17-4.732c.27-10.99,5.848-20.86,10.768-29.567,1.419-2.511,3.795-5.307,7.037-4.369a4.827,4.827,0,0,1,2.966,2.584c.769,1.6.286,4.531-.809,9.059-.08.334-.149.617-.2.83-1.1,4.912-5.561,15.741-5.75,16.2a1.706,1.706,0,1,1-3.155-1.3c.046-.109,4.535-11.016,5.574-15.646.051-.226.123-.528.209-.883,1.151-4.758,1.2-6.328,1.039-6.808a1.425,1.425,0,0,0-.825-.754c-1.1-.32-2.305,1.33-3.119,2.769-4.725,8.36-10.079,17.835-10.328,27.973a40.864,40.864,0,0,0,.211,4.937,1.711,1.711,0,0,1-.281,1.112c-6.388,9.537-15.122,18.214-21.135,23.91a1.7,1.7,0,0,1-1.173.468" transform="translate(-100.746 -80.979)" fill="#006067"/>
    <path id="Path_16919" data-name="Path 16919" d="M306.844,340.541a1.707,1.707,0,0,1-.515-3.333c15.516-4.92,31.056-28.838,37.018-38.893a1.706,1.706,0,1,1,2.935,1.741c-6.16,10.391-22.286,35.131-38.921,40.4a1.7,1.7,0,0,1-.517.081" transform="translate(-131.568 -128.266)" fill="#006067"/>
    <path id="Path_16920" data-name="Path 16920" d="M276.025,313.02a1.707,1.707,0,0,1-1.686-1.457c-.11-.742-11.183-74.364-27.147-86.936a1.706,1.706,0,0,1,2.111-2.68c17.021,13.4,27.954,86.032,28.412,89.117A1.707,1.707,0,0,1,276.277,313a1.8,1.8,0,0,1-.252.018" transform="translate(-106.303 -95.54)" fill="#006067"/>
    <path id="Path_16921" data-name="Path 16921" d="M145.019,361.743a1.706,1.706,0,0,1-1.705-1.663c-.352-13.693-.354-21.756-.357-28.87,0-3.511,0-6.826-.044-10.516a1.706,1.706,0,0,1,1.687-1.726h.02a1.707,1.707,0,0,1,1.706,1.687c.042,3.708.043,7.033.044,10.553,0,7.093.005,15.133.356,28.783a1.707,1.707,0,0,1-1.662,1.75h-.044" transform="translate(-61.621 -137.532)" fill="#006067"/>
    <path id="Path_16922" data-name="Path 16922" d="M352.313,299.438a1.705,1.705,0,0,1-1.457-.816,43.833,43.833,0,0,0-7.879-9.535,1.707,1.707,0,0,1,2.3-2.523,47.227,47.227,0,0,1,8.491,10.278,1.707,1.707,0,0,1-1.454,2.6" transform="translate(-147.643 -123.368)" fill="#006067"/>
    <path id="Path_16923" data-name="Path 16923" d="M56.949,224.572a1.7,1.7,0,0,1-1.39-.716c-.081-.114-.221-.294-.408-.538-9.564-12.45-14.784-26.147-15.1-39.609-.023-1,.171-3.413.489-7.274.372-4.51.835-10.122.773-12.647-.25-10.137-5.6-19.612-10.329-27.972-1.159-2.052-2.358-2.777-3.043-2.732a1.1,1.1,0,0,0-.915.748c-.478.994-.352,2.188.009,3.793,1.055,4.7,3.866,13.47,3.894,13.558a1.707,1.707,0,1,1-3.25,1.043c-.117-.365-2.886-9.008-3.974-13.853a8.892,8.892,0,0,1,.246-6.023,4.43,4.43,0,0,1,3.878-2.678c2.246-.09,4.481,1.553,6.126,4.464,4.92,8.707,10.5,18.577,10.769,29.566.067,2.708-.385,8.182-.783,13.012-.257,3.11-.5,6.047-.479,6.914.2,8.754,2.8,22.225,13.911,36.976,7.477-5.2,15.959-21.713,16.049-21.889l.035-.066C82.325,183,88.2,174.891,103.726,168.115a1.707,1.707,0,1,1,1.366,3.129c-14.641,6.39-19.977,13.763-28.646,29.058-.608,1.188-10.107,19.538-18.7,24.074a1.7,1.7,0,0,1-.8.2" transform="translate(-10.046 -55.911)" fill="#006067"/>
  </g>
</svg>
