<svg id="Group_39069" data-name="Group 39069" xmlns="http://www.w3.org/2000/svg" xmlns:xlink="http://www.w3.org/1999/xlink" width="307.294" height="213.436" viewBox="0 0 307.294 213.436">
  <defs>
    <clipPath id="clip-path">
      <rect id="Rectangle_4106" data-name="Rectangle 4106" width="307.294" height="213.436" fill="none"/>
    </clipPath>
  </defs>
  <g id="Group_39068" data-name="Group 39068" clip-path="url(#clip-path)">
    <path id="Path_16957" data-name="Path 16957" d="M18.189,107.126l-12.82,3.2a3.8,3.8,0,0,0-2.753,4.609l15.218,60.914a3.8,3.8,0,0,0,4.6,2.773l96.506-24.11a3.8,3.8,0,0,0,2.754-4.609L106.472,88.991a3.8,3.8,0,0,0-4.6-2.773L91.8,88.736M66.365,95.09l-22.829,5.7" transform="translate(-1.09 -37.527)" fill="none" stroke="#006067" stroke-linecap="round" stroke-linejoin="round" stroke-width="3"/>
    <rect id="Rectangle_4105" data-name="Rectangle 4105" width="92.12" height="61.059" transform="matrix(0.97, -0.242, 0.242, 0.97, 7.727, 76.721)" fill="#fffba9"/>
    <path id="Path_16958" data-name="Path 16958" d="M66.2,38.44c-.376-4.117-1.663-8.162-2.692-12.156C61.55,18.69,60.279,8.7,67.1,2.939,71.146-.477,76.814-.708,81.593,1.182,86.931,3.293,90.641,7.849,92.8,13.057c1.678,4.048,2.032,8.433,2.432,12.75.518,5.6,2.133,10.91,3.181,16.4.676,3.541.036,7.033-2.615,9.608-3.145,3.055-7.791,3.831-12.013,3.99C78.664,56,71.777,54.9,68.245,50.8c-2.5-2.907-1.723-8.767-2.045-12.329l0-.03" transform="translate(-27.001 0)" fill="#ddcdff"/>
    <path id="Path_16959" data-name="Path 16959" d="M22.8,193.042a1.411,1.411,0,0,1-1.364-1.054l-2.6-9.927a1.41,1.41,0,1,1,2.729-.714l2.6,9.927A1.411,1.411,0,0,1,23.154,193a1.425,1.425,0,0,1-.358.046" transform="translate(-8.189 -78.578)" fill="#006067"/>
    <path id="Path_16960" data-name="Path 16960" d="M53.608,56.518a1.376,1.376,0,0,1-.173-.011,1.41,1.41,0,0,1-1.229-1.571,37.777,37.777,0,0,0-.021-9.338A77.649,77.649,0,0,0,49.9,35.312c-.274-1.013-.548-2.027-.81-3.042-1.145-4.438-2.15-9.226-1.755-14.163.436-5.436,2.7-10.25,6.211-13.209C59.107.21,68.055.061,74.821,4.542c5.6,3.709,9.669,10.192,11.457,18.251a83.934,83.934,0,0,1,1.3,8.636c.23,2,.467,4.062.806,6.057a31.113,31.113,0,0,0,2.665,8.773,1.411,1.411,0,0,1-2.522,1.263A33.875,33.875,0,0,1,85.6,37.959c-.351-2.069-.593-4.173-.827-6.206a81.782,81.782,0,0,0-1.25-8.347C81.9,16.061,78.251,10.2,73.263,6.894c-5.653-3.744-13.349-3.675-17.9.162-2.94,2.477-4.841,6.587-5.217,11.277-.362,4.522.591,9.033,1.674,13.233.26,1.006.53,2.008.8,3.011a79.755,79.755,0,0,1,2.362,10.666,40.586,40.586,0,0,1,.023,10.037,1.411,1.411,0,0,1-1.4,1.239" transform="translate(-20.592 -0.557)" fill="#006067"/>
    <path id="Path_16961" data-name="Path 16961" d="M88.718,58.187a9.221,9.221,0,0,1-5.988-2.214,1.411,1.411,0,0,1,1.839-2.14,6.459,6.459,0,0,0,4.764,1.5,1.411,1.411,0,0,1,.278,2.808q-.446.044-.893.043" transform="translate(-35.842 -23.314)" fill="#006067"/>
    <path id="Path_16962" data-name="Path 16962" d="M99.451,37.839a1.41,1.41,0,0,1-1.41-1.41V33.882a1.41,1.41,0,0,1,2.821,0v2.547a1.41,1.41,0,0,1-1.41,1.41" transform="translate(-42.729 -14.152)" fill="#006067"/>
    <path id="Path_16963" data-name="Path 16963" d="M85.373,37.125a1.411,1.411,0,0,1-1.41-1.4l-.017-2.615a1.41,1.41,0,0,1,1.4-1.42h.01a1.411,1.411,0,0,1,1.41,1.4l.017,2.615a1.41,1.41,0,0,1-1.4,1.42Z" transform="translate(-36.586 -13.811)" fill="#006067"/>
    <path id="Path_16964" data-name="Path 16964" d="M275.836,102.487a1.41,1.41,0,0,1-1.409-1.37A34.065,34.065,0,0,1,277.834,85.3a1.41,1.41,0,1,1,2.536,1.234,31.231,31.231,0,0,0-3.124,14.5,1.41,1.41,0,0,1-1.369,1.45h-.041" transform="translate(-119.598 -36.832)" fill="#006067"/>
    <path id="Path_16965" data-name="Path 16965" d="M246.544,271.47a1.4,1.4,0,0,1-.887-.315,59.57,59.57,0,0,1-18.8-27.143,1.41,1.41,0,0,1,2.676-.891,56.724,56.724,0,0,0,17.9,25.843,1.41,1.41,0,0,1-.889,2.506" transform="translate(-98.841 -105.539)" fill="#006067"/>
    <path id="Path_16966" data-name="Path 16966" d="M141.551,93.689a1.41,1.41,0,0,1-1.4-1.268,11.962,11.962,0,0,0-4.588-8.095,6.177,6.177,0,0,0-5.145-1.154,6.567,6.567,0,0,0-3.286,1.994A8.375,8.375,0,0,0,125.164,91a1.428,1.428,0,0,1-1.434,1.387,1.411,1.411,0,0,1-1.386-1.434,11.189,11.189,0,0,1,2.723-7.706,9.374,9.374,0,0,1,4.717-2.819,9,9,0,0,1,7.421,1.61,14.945,14.945,0,0,1,5.752,10.1,1.41,1.41,0,0,1-1.261,1.546,1.371,1.371,0,0,1-.144.007" transform="translate(-53.321 -34.952)" fill="#006067"/>
    <path id="Path_16967" data-name="Path 16967" d="M132.365,103.871a1.41,1.41,0,0,1-1.405-1.311,13.678,13.678,0,0,0-1.906-6.327,1.41,1.41,0,1,1,2.5-1.312,16.421,16.421,0,0,1,2.222,7.441,1.411,1.411,0,0,1-1.308,1.506c-.034,0-.067,0-.1,0" transform="translate(-56.175 -41.041)" fill="#006067"/>
    <path id="Path_16968" data-name="Path 16968" d="M139.569,105.17a1.388,1.388,0,0,1-.144-.007,1.41,1.41,0,0,1-1.26-1.546,12.458,12.458,0,0,0-1.761-7.726,1.41,1.41,0,1,1,2.405-1.474,15.289,15.289,0,0,1,2.162,9.485,1.41,1.41,0,0,1-1.4,1.268" transform="translate(-59.358 -40.856)" fill="#006067"/>
    <path id="Path_16969" data-name="Path 16969" d="M146.1,101.05a1.41,1.41,0,0,1-1.405-1.31,11.374,11.374,0,0,0-1.8-6.026,1.411,1.411,0,0,1,2.433-1.429,14.017,14.017,0,0,1,2.179,7.254,1.41,1.41,0,0,1-1.306,1.507c-.034,0-.068,0-.1,0" transform="translate(-62.194 -39.917)" fill="#006067"/>
    <path id="Path_16970" data-name="Path 16970" d="M38.625,121.953a1.41,1.41,0,0,1-1.258-.772,14.945,14.945,0,0,1-.63-11.607,9,9,0,0,1,5.37-5.37,9.373,9.373,0,0,1,5.492-.181,11.189,11.189,0,0,1,6.459,5.007,1.41,1.41,0,1,1-2.346,1.566,8.382,8.382,0,0,0-4.808-3.839,6.584,6.584,0,0,0-3.841.1,6.179,6.179,0,0,0-3.7,3.755,11.964,11.964,0,0,0,.522,9.29,1.411,1.411,0,0,1-1.256,2.05" transform="translate(-15.625 -45.196)" fill="#006067"/>
    <path id="Path_16971" data-name="Path 16971" d="M60.015,123.094a1.41,1.41,0,0,1-1.238-.732,16.434,16.434,0,0,1-2.157-7.46,1.41,1.41,0,0,1,2.81-.247,13.678,13.678,0,0,0,1.821,6.351,1.411,1.411,0,0,1-1.236,2.089" transform="translate(-24.674 -49.409)" fill="#006067"/>
    <path id="Path_16972" data-name="Path 16972" d="M54.662,128.083a1.409,1.409,0,0,1-1.1-.531,15.3,15.3,0,0,1-3.314-9.146,1.41,1.41,0,0,1,2.82-.063,12.459,12.459,0,0,0,2.7,7.45,1.41,1.41,0,0,1-1.1,2.29" transform="translate(-21.898 -50.976)" fill="#006067"/>
    <path id="Path_16973" data-name="Path 16973" d="M46.937,128.153a1.41,1.41,0,0,1-1.239-.734,14.032,14.032,0,0,1-2.093-7.279,1.411,1.411,0,0,1,2.819-.115,11.381,11.381,0,0,0,1.748,6.041,1.411,1.411,0,0,1-1.236,2.087" transform="translate(-19.004 -51.721)" fill="#006067"/>
    <path id="Path_16974" data-name="Path 16974" d="M191.978,144.5a2.186,2.186,0,1,1-2.186-2.186,2.185,2.185,0,0,1,2.186,2.186" transform="translate(-81.765 -62.027)" fill="#006067"/>
    <path id="Path_16975" data-name="Path 16975" d="M503.088,309.793a1.411,1.411,0,0,1-.656-2.66,51.45,51.45,0,0,0,18.888-17.011,1.41,1.41,0,1,1,2.348,1.563,54.281,54.281,0,0,1-19.926,17.946,1.407,1.407,0,0,1-.654.162" transform="translate(-218.647 -126.171)" fill="#006067"/>
    <path id="Path_16976" data-name="Path 16976" d="M382.966,146.813a29.08,29.08,0,0,1,4.38-3.7,9.537,9.537,0,0,0,3.506-4.487c.549-1.849-.091-4.168-1.842-4.977a4.307,4.307,0,0,0-4.372.834,12.672,12.672,0,0,0-2.785,3.74,3.2,3.2,0,0,1-3.916-1.871,6.219,6.219,0,0,1,.227-4.689c.588-1.5,1.467-2.862,2.061-4.355,1.349-3.389,1.19-6.512.97-10.153a30.87,30.87,0,0,1-10.015-3.463c-1.724-.861-4.305.923-6.178.468a14.307,14.307,0,0,1-4.612-2.473c-.73-.561-1.474-2.135-2.22-2.675-.777-.561-2.68-.079-3.556-.468-3.127-1.386-4.753-3.54-6.827-6.259a7.394,7.394,0,0,1-1.863-4.857,5.778,5.778,0,0,1,3.957-4.67,12.247,12.247,0,0,1,6.391-.187c-3.874.065-6.959-4.136-6.4-7.971s4.029-6.821,7.823-7.606,7.777.318,11.163,2.2c10.906,6.065,15.937,19.1,25.553,27.056,5.7,4.718,14.828,8.53,13.156,17.471a21.856,21.856,0,0,1-3.072,7.217,81.845,81.845,0,0,1-11.932,14.686,162.281,162.281,0,0,1-12.749,11.607c.231-3.673.759-7.569,3.127-10.387l.025-.029" transform="translate(-150.759 -33.444)" fill="#ffc3b5"/>
    <path id="Path_16977" data-name="Path 16977" d="M354.163,182.953c-.045,0-.09,0-.135-.007-4.425-.421-9.932-.945-14.8-3.075a25.363,25.363,0,0,1-13.481-14.187c-2.5-6.615-2.254-14.666.692-22.672,2.409-6.544,6.153-12.328,11.033-19a1.411,1.411,0,0,1,2.277,1.665c-4.74,6.482-8.367,12.076-10.662,18.311-2.713,7.369-2.962,14.72-.7,20.7a22.839,22.839,0,0,0,11.974,12.6c4.124,1.8,8.561,2.339,13.934,2.851a1.41,1.41,0,0,1-.132,2.814" transform="translate(-141.226 -53.795)" fill="#006067"/>
    <path id="Path_16978" data-name="Path 16978" d="M403.242,211.265l-.07,0a1.41,1.41,0,0,1-1.34-1.477c.18-3.7,1.072-16.1,5.009-20.568a17.534,17.534,0,0,1,2.9-2.478c.6-.442,1.171-.86,1.691-1.317,1.3-1.144,2.6-3.145,2.582-4.754a2.254,2.254,0,0,0-.885-1.807,2.4,2.4,0,0,0-1.851-.477c-2.05.274-3.188,2.216-3.683,3.349a1.41,1.41,0,0,1-2.584-1.131c1.248-2.852,3.4-4.681,5.893-5.014a5.2,5.2,0,0,1,4.028,1.1,5.081,5.081,0,0,1,1.9,3.936c.04,2.768-1.882,5.454-3.54,6.912-.612.539-1.259,1.014-1.884,1.473a15.157,15.157,0,0,0-2.451,2.07c-2.649,3-3.975,12.026-4.307,18.839a1.41,1.41,0,0,1-1.408,1.342" transform="translate(-175.13 -76.506)" fill="#006067"/>
    <path id="Path_16979" data-name="Path 16979" d="M347.651,237.079a1.411,1.411,0,0,1-1.211-2.13c1.142-1.925,3.728-5.908,3.837-6.077a1.411,1.411,0,0,1,2.366,1.536c-.027.041-2.664,4.1-3.778,5.98a1.409,1.409,0,0,1-1.214.691" transform="translate(-150.903 -99.47)" fill="#006067"/>
    <path id="Path_16980" data-name="Path 16980" d="M324.721,188.442c-.04,0-.08,0-.121-.005-6.42-.543-12.016-4.344-15.666-7.156a41.534,41.534,0,0,1-9.543-9.694c-3.54-5.3-5.469-11.968-5.735-19.826-.232-6.857.808-13.678,1.813-20.274a1.41,1.41,0,0,1,.487-.867c3.56-2.991,6.191-7.245,8.044-13.007a1.41,1.41,0,0,1,2.685.864c-1.951,6.065-4.737,10.636-8.507,13.952-.961,6.309-1.921,12.818-1.7,19.237.248,7.326,2.017,13.5,5.261,18.355a38.872,38.872,0,0,0,8.919,9.026c3.369,2.594,8.5,6.1,14.183,6.58a1.41,1.41,0,0,1-.117,2.816" transform="translate(-127.971 -50.833)" fill="#006067"/>
    <path id="Path_16981" data-name="Path 16981" d="M283.393,202.841a1.4,1.4,0,0,1-.81-.256,72.294,72.294,0,0,1-25.259-86.8c-1.6-8.976-.98-14.23,2.758-24.069a1.41,1.41,0,1,1,2.636,1c-3.361,8.847-4.252,13.647-2.546,22.972a1.414,1.414,0,0,1-.087.8A69.472,69.472,0,0,0,284.2,200.276a1.41,1.41,0,0,1-.811,2.565" transform="translate(-109.763 -39.576)" fill="#006067"/>
    <path id="Path_16982" data-name="Path 16982" d="M294.194,111.4h-.014a1.411,1.411,0,0,1-1.4-1.424,34.277,34.277,0,0,1,7.679-21.249,1.411,1.411,0,0,1,2.187,1.782,31.447,31.447,0,0,0-7.045,19.494,1.411,1.411,0,0,1-1.41,1.4" transform="translate(-127.605 -38.445)" fill="#006067"/>
    <path id="Path_16983" data-name="Path 16983" d="M285.4,103.326A1.41,1.41,0,0,1,284,101.965a36.006,36.006,0,0,1,6.177-21.355A1.41,1.41,0,1,1,292.5,82.2a33.163,33.163,0,0,0-5.689,19.669,1.41,1.41,0,0,1-1.361,1.458h-.05" transform="translate(-123.766 -34.864)" fill="#006067"/>
    <path id="Path_16984" data-name="Path 16984" d="M408.612,199.053a19.667,19.667,0,0,1-6.708-1.125,1.41,1.41,0,1,1,.957-2.653c4.213,1.519,15.209,1.9,26.667-7.54a36.9,36.9,0,0,0,10.814-15.783c2.231-6.025,3.374-12.5,4.452-18.793-2.531-4.336-3.733-9.551-3.671-15.923a1.411,1.411,0,0,1,1.41-1.4h.014a1.41,1.41,0,0,1,1.4,1.425c-.059,6.052,1.1,10.919,3.531,14.88a1.408,1.408,0,0,1,.188.977c-1.127,6.577-2.292,13.376-4.676,19.811a39.7,39.7,0,0,1-11.665,16.98c-4.662,3.84-13.739,9.141-22.709,9.141" transform="translate(-174.756 -59.203)" fill="#006067"/>
    <path id="Path_16985" data-name="Path 16985" d="M419.829,227.664a1.411,1.411,0,0,1-.4-2.762c15.908-4.768,32.909-16.685,41.343-28.98a69.7,69.7,0,0,0,11.977-44.648,1.416,1.416,0,0,1,.133-.715c4.488-9.417,5.143-14.915,4.783-21.768a1.41,1.41,0,0,1,2.817-.149c.372,7.063-.314,13.081-4.891,22.791a72.535,72.535,0,0,1-12.492,46.085c-8.766,12.779-26.39,25.151-42.859,30.087a1.407,1.407,0,0,1-.406.06" transform="translate(-182.36 -55.483)" fill="#006067"/>
    <path id="Path_16986" data-name="Path 16986" d="M488.833,135.258a1.412,1.412,0,0,1-1.343-1.843,31.452,31.452,0,0,0-.535-20.721,1.41,1.41,0,0,1,2.637-1,34.279,34.279,0,0,1,.583,22.587,1.411,1.411,0,0,1-1.342.979" transform="translate(-212.191 -48.282)" fill="#006067"/>
    <path id="Path_16987" data-name="Path 16987" d="M500.1,130.711a1.411,1.411,0,0,1-1.322-1.9,33.162,33.162,0,0,0,.807-20.46,1.41,1.41,0,1,1,2.714-.77,36,36,0,0,1-.876,22.212,1.411,1.411,0,0,1-1.322.92" transform="translate(-217.346 -46.439)" fill="#006067"/>
    <path id="Path_16988" data-name="Path 16988" d="M510.759,133.583a1.412,1.412,0,0,1-1.325-1.894,31.232,31.232,0,0,0,1.61-14.744,1.41,1.41,0,1,1,2.8-.371,34.059,34.059,0,0,1-1.756,16.081,1.411,1.411,0,0,1-1.325.928" transform="translate(-221.99 -50.273)" fill="#006067"/>
    <path id="Path_16989" data-name="Path 16989" d="M357.313,171.564a3.164,3.164,0,0,1-1.332-.3,2.91,2.91,0,0,1-1.75-2.508,4.376,4.376,0,0,1,.46-1.91l1.988-4.63a1.41,1.41,0,0,1,2.592,1.113l-1.988,4.63a2.491,2.491,0,0,0-.234.7.693.693,0,0,0,.28.081,1.384,1.384,0,0,1,1.955.248,1.429,1.429,0,0,1-.26,1.994,2.754,2.754,0,0,1-1.713.581" transform="translate(-154.385 -70.326)" fill="#006067"/>
    <path id="Path_16990" data-name="Path 16990" d="M422.4,344.28a1.41,1.41,0,0,1-1.405-1.311c-1.333-18.918-2.949-41.018-2.965-41.24a1.411,1.411,0,1,1,2.814-.206c.016.221,1.633,22.325,2.965,41.247a1.411,1.411,0,0,1-1.308,1.506c-.034,0-.067,0-.1,0" transform="translate(-182.188 -130.844)" fill="#006067"/>
    <path id="Path_16991" data-name="Path 16991" d="M288.133,331.482a1.43,1.43,0,0,1-.318-.037,1.41,1.41,0,0,1-1.058-1.691c4.54-19.75,10.122-43.545,10.932-44.741a1.41,1.41,0,0,1,2.4,1.475c-.815,1.972-6.764,27.282-10.584,43.9a1.412,1.412,0,0,1-1.373,1.094m11.944-44.97c-.016.028-.034.056-.052.082a.881.881,0,0,0,.052-.082" transform="translate(-124.962 -123.948)" fill="#006067"/>
    <path id="Path_16992" data-name="Path 16992" d="M364.3,256.132c-.241,0-.482,0-.723-.014a20.53,20.53,0,0,1-14.445-6.909,1.411,1.411,0,0,1,2.127-1.853,17.355,17.355,0,0,0,25.267.962,1.41,1.41,0,1,1,1.98,2.009,20.558,20.558,0,0,1-14.206,5.8" transform="translate(-152.01 -107.595)" fill="#006067"/>
    <path id="Path_16993" data-name="Path 16993" d="M446.767,265.456a1.411,1.411,0,0,1-1.344-.986,74.186,74.186,0,0,0-8.138-17.449,1.41,1.41,0,1,1,2.38-1.514,76.991,76.991,0,0,1,8.447,18.111,1.412,1.412,0,0,1-1.345,1.836" transform="translate(-190.487 -106.715)" fill="#006067"/>
    <path id="Path_16994" data-name="Path 16994" d="M277.733,234.064a1.411,1.411,0,0,1-1.124-2.262,37.989,37.989,0,0,1,13.9-11.315,1.41,1.41,0,1,1,1.211,2.547,35.15,35.15,0,0,0-12.864,10.472,1.41,1.41,0,0,1-1.125.559" transform="translate(-120.43 -96.035)" fill="#006067"/>
    <path id="Path_16995" data-name="Path 16995" d="M471.491,275.838a1.411,1.411,0,0,1-.577-2.7,67.61,67.61,0,0,0,38.456-49.293,1.41,1.41,0,1,1,2.777.493,70.463,70.463,0,0,1-40.08,51.374,1.4,1.4,0,0,1-.576.124" transform="translate(-204.876 -97.052)" fill="#006067"/>
    <path id="Path_16996" data-name="Path 16996" d="M363.172,195.73a7.229,7.229,0,0,1-3.73-1,1.41,1.41,0,0,1,1.453-2.418,4.887,4.887,0,0,0,6.179-1.254,1.41,1.41,0,1,1,2.28,1.66,7.682,7.682,0,0,1-6.182,3.012" transform="translate(-156.359 -83.017)" fill="#006067"/>
    <path id="Path_16997" data-name="Path 16997" d="M380.209,133.213a13.417,13.417,0,0,1-1.9-.134,13.767,13.767,0,0,1-6.992-3.191,11.063,11.063,0,0,1-8.936-.385,13.011,13.011,0,0,1-4.878-4.367,9.9,9.9,0,0,1-4.616-.924,12.512,12.512,0,0,1-6.324-7.466,1.411,1.411,0,0,1,2.676-.894,9.686,9.686,0,0,0,4.847,5.806,6.994,6.994,0,0,0,1.87.572c-.909-2.212-1.945-5.874-.46-8.773a4.761,4.761,0,0,1,4-2.807,5.761,5.761,0,0,1,4.96,2.63,7.7,7.7,0,0,1-1.661,9.886,8.235,8.235,0,0,1-2.244,1.328,9.822,9.822,0,0,0,3.1,2.486,8.291,8.291,0,0,0,5.562.619,7.538,7.538,0,0,1-1.54-6.279,5.111,5.111,0,0,1,1.695-2.653,4.276,4.276,0,0,1,4.2-.832,5.021,5.021,0,0,1,3.14,3.682,6.789,6.789,0,0,1-1.384,5.369,8.632,8.632,0,0,1-1.4,1.467,10.813,10.813,0,0,0,12.73-.058,1.41,1.41,0,1,1,1.669,2.273,13.773,13.773,0,0,1-8.113,2.645m-8.026-12.8a1.635,1.635,0,0,0-1.035.43,2.27,2.27,0,0,0-.753,1.18c-.42,1.62.6,3.277,1.246,4.12.065.086.132.17.2.253a5.857,5.857,0,0,0,1.217-1.2,4.051,4.051,0,0,0,.883-3.109,2.21,2.21,0,0,0-1.318-1.595,1.31,1.31,0,0,0-.441-.078m-12.422-6.954-.107,0a2.01,2.01,0,0,0-1.648,1.278c-.783,1.527-.511,4.024.744,6.85q.1.234.216.461A5.555,5.555,0,0,0,360.982,121a4.94,4.94,0,0,0,1.123-6.16,3.018,3.018,0,0,0-2.344-1.379" transform="translate(-151.011 -48.222)" fill="#006067"/>
    <path id="Path_16998" data-name="Path 16998" d="M372.635,158.028a1.694,1.694,0,0,1-1.619-2.19l.62-2.017a1.693,1.693,0,0,1,3.235,1l-.619,2.016a1.693,1.693,0,0,1-1.617,1.2" transform="translate(-161.668 -66.519)" fill="#006067"/>
    <path id="Path_16999" data-name="Path 16999" d="M347.405,152.348a1.694,1.694,0,0,1-1.6-2.248l.513-1.476a1.692,1.692,0,0,1,3.2,1.113L349,151.21a1.693,1.693,0,0,1-1.6,1.138" transform="translate(-150.673 -64.28)" fill="#006067"/>
  </g>
</svg>
