<svg id="Group_39071" data-name="Group 39071" xmlns="http://www.w3.org/2000/svg" xmlns:xlink="http://www.w3.org/1999/xlink" width="222.95" height="201.07" viewBox="0 0 222.95 201.07">
  <defs>
    <clipPath id="clip-path">
      <rect id="Rectangle_4107" data-name="Rectangle 4107" width="222.95" height="201.07" fill="none"/>
    </clipPath>
  </defs>
  <g id="Group_39070" data-name="Group 39070" clip-path="url(#clip-path)">
    <path id="Path_17000" data-name="Path 17000" d="M259.511,163.362c-2.908-2.2-5.518-4.769-6.789-8.075-1.279-3.326-.465-7.748,2.709-9.367,2.488-1.269,5.635-.424,7.811,1.326s3.592,4.251,4.956,6.689c-1.991-2.224-.552-6.119,2.127-7.437,4.225-2.078,14.569.547,20.325,11.115a5.318,5.318,0,0,1-.5-6.706c3.23-4.758,9.8-3.109,13.408-1.59,3.443,1.452,6.336,4.006,9.692,5.667,6.344,3.513,13.635,5.549,18.15,11.6,5.865,7.866,9.722,23.178,2.835,37.863-5.348,11.4-22.152,21.092-27.175,37.6-.666-4.905,1.1-20.614,1.1-20.614a48.874,48.874,0,0,0,7.38-4.206c7.39-6,7.519-13.1,3.08-16.534-2.39-1.85-5.534-1.236-8.1.359-1.986,1.235-3.813,4.172-5.467,5.826a6.675,6.675,0,0,1-6.831,1.429c-2.281-.983-2.968-4.115-2.009-6.406s3.082-3.867,5.221-5.128,4.436-2.359,6.148-4.158c1.617-1.7,3.189-5.215,1.8-7.463-1.368-2.208-5.389-3.091-7.691-3.83-12.247-3.927-24.9-6.3-35.777-13.608-2.024-1.359-4.289-2.765-6.4-4.362" transform="translate(-114.964 -66.254)" fill="#00e3e2"/>
    <path id="Path_17001" data-name="Path 17001" d="M314.984,200.744a1.625,1.625,0,0,1-.9-.273,41.5,41.5,0,0,0-4.967-2.812c-5.206-2.515-11.016-4.162-16.633-5.756-1.2-.341-2.4-.681-3.592-1.029-9.043-2.638-18.316-6.044-24.872-13.047A1.633,1.633,0,0,1,266.4,175.6c6.02,6.431,14.805,9.637,23.4,12.145q1.777.517,3.568,1.021c5.752,1.632,11.7,3.319,17.162,5.957a44.763,44.763,0,0,1,5.354,3.031,1.632,1.632,0,0,1-.9,2.992" transform="translate(-120.177 -79.827)" fill="#006067"/>
    <path id="Path_17002" data-name="Path 17002" d="M354.5,305.363a1.633,1.633,0,0,1-1.544-1.1c-3.791-11.057-5.092-18.864-2.777-35.9.479-3.527,2.709-5.974,6.627-7.275a10.989,10.989,0,0,0,4.127-2.425,10.377,10.377,0,0,0,3.1-7.889c-.1-1.835-.914-4.309-2.9-5.244a5.449,5.449,0,0,0-5.324.837,14.16,14.16,0,0,0-3.981,5.192,1.632,1.632,0,1,1-2.911-1.478,17.136,17.136,0,0,1,4.987-6.366,8.732,8.732,0,0,1,8.621-1.139c3.281,1.547,4.612,5.159,4.764,8.024a13.687,13.687,0,0,1-4.083,10.4,14.12,14.12,0,0,1-5.371,3.181c-2.748.912-4.111,2.336-4.422,4.617-2.226,16.374-.987,23.845,2.631,34.4a1.633,1.633,0,0,1-1.544,2.162" transform="translate(-159.005 -110.294)" fill="#006067"/>
    <path id="Path_17003" data-name="Path 17003" d="M279.95,335.269a1.634,1.634,0,0,1-1.59-2.008c.336-1.423.607-2.674.869-3.884s.539-2.491.882-3.943a1.632,1.632,0,1,1,3.177.75c-.336,1.422-.607,2.673-.869,3.883s-.539,2.492-.882,3.943a1.633,1.633,0,0,1-1.587,1.258" transform="translate(-126.897 -147.807)" fill="#006067"/>
    <path id="Path_17004" data-name="Path 17004" d="M302.544,232.9a1.634,1.634,0,0,1-1.515-2.239l.6-1.51a1.632,1.632,0,1,1,3.03,1.213l-.6,1.51a1.633,1.633,0,0,1-1.516,1.027" transform="translate(-137.2 -104.01)" fill="#006067"/>
    <path id="Path_17005" data-name="Path 17005" d="M274.182,220.356a1.634,1.634,0,0,1-1.515-2.239l.6-1.511a1.632,1.632,0,1,1,3.03,1.213l-.6,1.51a1.633,1.633,0,0,1-1.516,1.027" transform="translate(-124.268 -98.293)" fill="#006067"/>
    <path id="Path_17006" data-name="Path 17006" d="M258.675,263.638c-3.441,0-7.163-.355-9.945-2.431-5.7-4.25-6.224-13.174-6.046-20.473a70.681,70.681,0,0,1,4.04-21.1,86.885,86.885,0,0,1,12.916-24.408,1.632,1.632,0,0,1,2.64,1.92A82.765,82.765,0,0,0,249.813,220.7a67.437,67.437,0,0,0-3.865,20.118c-.159,6.513.235,14.421,4.734,17.777,2.631,1.962,7.065,1.833,10.627,1.732l.947-.026a74.578,74.578,0,0,0,16.114-2.58,1.632,1.632,0,1,1,.795,3.166,77.516,77.516,0,0,1-16.83,2.677l-.933.026c-.872.025-1.789.052-2.728.052" transform="translate(-110.638 -88.707)" fill="#006067"/>
    <path id="Path_17007" data-name="Path 17007" d="M271.081,277.557a15.143,15.143,0,0,1-4.544-.691,1.632,1.632,0,1,1,.98-3.113,12.178,12.178,0,0,0,10.052-1.314,1.632,1.632,0,0,1,1.747,2.757,15.447,15.447,0,0,1-8.235,2.361" transform="translate(-121.006 -124.102)" fill="#006067"/>
    <path id="Path_17008" data-name="Path 17008" d="M26.777,54.614A23.373,23.373,0,0,0,38.3,30.455,59.963,59.963,0,0,0,81.715,41.523c4.7-.653,9.837-2.245,12.155-6.391,5.142-9.2-5.566-17.774-12.525-21.67C73.026,8.8,63.525,6.613,54.175,5.19c-7.968-1.212-16.186-1.965-24.026-.1a18.633,18.633,0,0,0-8.566,4.144c-2.339,2.2-3.789,5.531-3.092,8.663C13,15.575,6.383,18.935,3.275,24.021S-.189,35.383.067,41.337C.889,60.477,7.1,79,14.776,96.552c.416.95,1.151,2.077,2.169,1.875.909-.18,1.242-1.283,1.4-2.2q1.162-6.769,2.257-13.55c.365-2.26.693-4.528,1.078-6.784.169-.992.345-1.343-.333-2.136s-1.518-1.5-2.256-2.253A19.489,19.489,0,0,1,14,63.194c-1.042-3.842-.536-9,3.5-10.8a8.151,8.151,0,0,1,5.174-.437,7.568,7.568,0,0,1,2.344.995,13.023,13.023,0,0,1,1.757,1.663" transform="translate(0 -1.808)" fill="#b072f3"/>
    <path id="Path_17009" data-name="Path 17009" d="M92.309,142.373c-3.434,0-6.757-.249-9.8-.512a1.633,1.633,0,0,1,.282-3.253c5.265.456,11.378.867,17.294-.043,12.305-1.893,17.3-8.918,17.226-24.245.007-.436.637-40.283.606-42.4a1.633,1.633,0,0,1,1.609-1.656,1.613,1.613,0,0,1,1.656,1.609c.031,2.171-.58,40.825-.606,42.47.038,8.139-1.258,13.976-4.078,18.337-3.221,4.982-8.427,7.963-15.916,9.116a54.4,54.4,0,0,1-8.269.582" transform="translate(-36.938 -32.034)" fill="#006067"/>
    <path id="Path_17010" data-name="Path 17010" d="M23.769,157.661a1.636,1.636,0,0,1-1.609-1.916l7.407-42.017c-4.756-3.173-8.177-8.227-8.829-13.148-.5-3.74.26-8.471,3.872-10.533a8.977,8.977,0,0,1,8.488-.194,8.546,8.546,0,0,1,4.715,6.563,1.632,1.632,0,1,1-3.238.4,5.226,5.226,0,0,0-2.937-4.049,5.724,5.724,0,0,0-5.408.11c-2.209,1.261-2.6,4.7-2.256,7.269.569,4.293,3.8,8.758,8.222,11.375a1.633,1.633,0,0,1,.777,1.688l-7.6,43.1a1.632,1.632,0,0,1-1.6,1.349" transform="translate(-9.393 -40.525)" fill="#006067"/>
    <path id="Path_17011" data-name="Path 17011" d="M104.967,63.685A61.79,61.79,0,0,1,68.52,51.837a1.632,1.632,0,1,1,1.934-2.63,58.479,58.479,0,0,0,48.521,9.481,1.632,1.632,0,0,1,.8,3.165,60.329,60.329,0,0,1-14.81,1.832" transform="translate(-30.938 -22.291)" fill="#006067"/>
    <path id="Path_17012" data-name="Path 17012" d="M108.055,214.152a1.633,1.633,0,0,1-1.62-1.449c-.036-.326-.9-8.026-.4-12.025a1.632,1.632,0,0,1,3.239.4c-.45,3.614.395,11.178.4,11.254a1.631,1.631,0,0,1-1.438,1.8,1.532,1.532,0,0,1-.186.011" transform="translate(-48.276 -90.846)" fill="#006067"/>
    <path id="Path_17013" data-name="Path 17013" d="M85.57,154.637a13.709,13.709,0,0,1-13.048-9.3,1.632,1.632,0,0,1,3.09-1.051,10.469,10.469,0,0,0,12.106,6.864,1.632,1.632,0,1,1,.684,3.192,13.523,13.523,0,0,1-2.832.3" transform="translate(-33.026 -65.281)" fill="#006067"/>
    <path id="Path_17014" data-name="Path 17014" d="M137.758,102.514c-.039,0-.078,0-.118,0a1.632,1.632,0,0,1-1.511-1.744l.138-1.945a1.615,1.615,0,0,1,1.744-1.511,1.631,1.631,0,0,1,1.511,1.744L139.384,101a1.632,1.632,0,0,1-1.626,1.516" transform="translate(-62.065 -44.365)" fill="#006067"/>
    <path id="Path_17015" data-name="Path 17015" d="M96.366,98.906l-.077,0A1.633,1.633,0,0,1,94.735,97.2l.091-1.959a1.632,1.632,0,1,1,3.261.151L98,97.35a1.632,1.632,0,0,1-1.629,1.557" transform="translate(-43.193 -42.714)" fill="#006067"/>
    <path id="Path_17016" data-name="Path 17016" d="M115.306,125.814a8.87,8.87,0,0,1-5.683-2.08,1.632,1.632,0,1,1,2.139-2.466c1.636,1.419,4.61,1.853,6.14.313a2.761,2.761,0,0,0,.8-2.107,7.145,7.145,0,0,0-1.761-3.295l-.337-.446c-2.889-3.866-4.189-7.857-3.861-11.864a1.632,1.632,0,1,1,3.253.266c-.264,3.235.79,6.389,3.222,9.644l.323.427a9.713,9.713,0,0,1,2.413,5,6.025,6.025,0,0,1-1.742,4.679,6.8,6.8,0,0,1-4.911,1.931" transform="translate(-49.725 -46.675)" fill="#006067"/>
    <path id="Path_17017" data-name="Path 17017" d="M122.3,334.309H59.442A12.183,12.183,0,0,1,47.273,322.14V304.393a12.183,12.183,0,0,1,12.169-12.169H94.894a1.632,1.632,0,1,1,0,3.264H59.442a8.915,8.915,0,0,0-8.905,8.905V322.14a8.915,8.915,0,0,0,8.905,8.9H122.3a8.915,8.915,0,0,0,8.905-8.9V304.393a8.915,8.915,0,0,0-8.905-8.905,1.632,1.632,0,1,1,0-3.264,12.183,12.183,0,0,1,12.169,12.169V322.14A12.183,12.183,0,0,1,122.3,334.309" transform="translate(-21.554 -133.238)" fill="#006067"/>
    <path id="Path_17018" data-name="Path 17018" d="M159.543,284.72a1.633,1.633,0,0,1-1.483-2.313l3.171-6.917L145.613,284.5a1.632,1.632,0,0,1-1.632-2.828l20.051-11.567a1.632,1.632,0,0,1,2.3,2.094l-5.3,11.568a1.631,1.631,0,0,1-1.485.953" transform="translate(-65.276 -123.054)" fill="#006067"/>
    <path id="Path_17019" data-name="Path 17019" d="M144.081,327.2a4.859,4.859,0,1,1,4.859,4.859,4.859,4.859,0,0,1-4.859-4.859" transform="translate(-65.693 -146.968)" fill="#00e3e2"/>
    <path id="Path_17020" data-name="Path 17020" d="M118.474,327.2a4.859,4.859,0,1,1,4.859,4.859,4.86,4.86,0,0,1-4.859-4.859" transform="translate(-54.018 -146.968)" fill="#00e3e2"/>
    <path id="Path_17021" data-name="Path 17021" d="M92.868,327.2a4.859,4.859,0,1,1,4.859,4.859,4.86,4.86,0,0,1-4.859-4.859" transform="translate(-42.343 -146.968)" fill="#00e3e2"/>
    <path id="Path_17022" data-name="Path 17022" d="M266.823,42.085H231.371a1.632,1.632,0,1,1,0-3.264h35.452a8.915,8.915,0,0,0,8.905-8.905V12.169a8.915,8.915,0,0,0-8.905-8.905H203.968a8.915,8.915,0,0,0-8.9,8.905V29.915a8.915,8.915,0,0,0,8.9,8.905,1.632,1.632,0,0,1,0,3.264A12.183,12.183,0,0,1,191.8,29.915V12.169A12.183,12.183,0,0,1,203.968,0h62.855a12.183,12.183,0,0,1,12.169,12.169V29.915a12.183,12.183,0,0,1-12.169,12.169" transform="translate(-87.45)" fill="#006067"/>
    <path id="Path_17023" data-name="Path 17023" d="M214.951,87.259a1.632,1.632,0,0,1-1.484-2.312l5.3-11.568a1.632,1.632,0,0,1,2.967,1.36l-3.171,6.917,15.619-9.011a1.632,1.632,0,0,1,1.631,2.827L215.766,87.041a1.631,1.631,0,0,1-.815.218" transform="translate(-97.262 -33.023)" fill="#006067"/>
    <path id="Path_17024" data-name="Path 17024" d="M247.112,34.237a4.859,4.859,0,1,1-4.86-4.859,4.86,4.86,0,0,1,4.86,4.859" transform="translate(-108.238 -13.395)" fill="#00e3e2"/>
    <path id="Path_17025" data-name="Path 17025" d="M272.718,34.237a4.859,4.859,0,1,1-4.859-4.859,4.86,4.86,0,0,1,4.859,4.859" transform="translate(-119.914 -13.395)" fill="#00e3e2"/>
    <path id="Path_17026" data-name="Path 17026" d="M298.325,34.237a4.859,4.859,0,1,1-4.859-4.859,4.86,4.86,0,0,1,4.859,4.859" transform="translate(-131.589 -13.395)" fill="#00e3e2"/>
    <path id="Path_17027" data-name="Path 17027" d="M266.585,246.26a1.637,1.637,0,0,1-.52-.085,17.5,17.5,0,0,1-5.694-2.707,4.841,4.841,0,0,1-1.853-3.534,3.711,3.711,0,0,1,1.271-2.843,9.8,9.8,0,0,1,4.32-1.826c.326-.081.651-.162.967-.248,3.12-.855,5.676-2.56,6.838-4.561a1.632,1.632,0,1,1,2.823,1.64c-1.605,2.765-4.812,4.977-8.8,6.069-.341.093-.691.18-1.042.267a8.063,8.063,0,0,0-2.922,1.084c-.2.177-.194.3-.193.362a1.687,1.687,0,0,0,.69,1.091,15.3,15.3,0,0,0,4.633,2.111,1.633,1.633,0,0,1-.52,3.18" transform="translate(-117.87 -104.705)" fill="#006067"/>
  </g>
</svg>
