<svg xmlns="http://www.w3.org/2000/svg" width="161.467" height="40.101" viewBox="0 0 161.467 40.101">
  <g id="Group_39051" data-name="Group 39051" transform="translate(0 0)">
    <g id="Group_4638" data-name="Group 4638" transform="translate(0 0)">
      <g id="Group_4636" data-name="Group 4636" transform="translate(0 9.126)">
        <path id="Path_6768" data-name="Path 6768" d="M2321.436,1213.56c-3.253,5.646-1.185,14.214,2.414,19.41,1.8,2.6,3.614,4.929,6.1,4.929.048,0,.1,0,.143,0a7.52,7.52,0,0,0,2.833-.755,7.765,7.765,0,0,1,3.357-.8,7.3,7.3,0,0,1,3.194.769,6.76,6.76,0,0,0,3.06.735c2.807-.052,4.529-2.569,6.049-4.788a21.22,21.22,0,0,0,2.65-5.427l.01-.034a.314.314,0,0,0-.167-.387l-.023-.01a8.043,8.043,0,0,1-4.874-7.364,8.276,8.276,0,0,1,3.913-6.92l.031-.02a.315.315,0,0,0,.089-.443,9.1,9.1,0,0,0-7.16-3.887c-.2-.02-.413-.031-.623-.031a12.489,12.489,0,0,0-4.5,1.122,7.193,7.193,0,0,1-2.151.643,7.044,7.044,0,0,1-2.227-.65,10.791,10.791,0,0,0-3.926-1h-.1A9.623,9.623,0,0,0,2321.436,1213.56Z" transform="translate(-2319.813 -1208.538)" fill="#525252"/>
      </g>
      <g id="Group_4637" data-name="Group 4637" transform="translate(15.311 0)">
        <path id="Path_6769" data-name="Path 6769" d="M2442.674,1140.038a8.786,8.786,0,0,0-5.8,2.976,8.23,8.23,0,0,0-2.084,6.1.316.316,0,0,0,.288.273c.135.01.271.015.408.015a7.433,7.433,0,0,0,5.476-2.809,8.676,8.676,0,0,0,2.041-6.28A.318.318,0,0,0,2442.674,1140.038Z" transform="translate(-2434.738 -1140.038)" fill="#525252"/>
      </g>
    </g>
    <g id="Group_4641" data-name="Group 4641" transform="translate(43.347 0.641)">
      <g id="Group_4639" data-name="Group 4639" transform="translate(2.787 0)">
        <path id="Path_6770" data-name="Path 6770" d="M2666.092,1149.15h3.772a5.516,5.516,0,0,1,2.635.613,4.482,4.482,0,0,1,1.791,1.7,5.04,5.04,0,0,1,0,4.916,4.483,4.483,0,0,1-1.791,1.7,5.518,5.518,0,0,1-2.635.613h-3.772Zm3.718,8.905a4.966,4.966,0,0,0,2.328-.524,3.745,3.745,0,0,0,1.553-1.464,4.525,4.525,0,0,0,0-4.3,3.751,3.751,0,0,0-1.553-1.464,4.972,4.972,0,0,0-2.328-.524h-3.023v8.279Z" transform="translate(-2666.092 -1148.578)" fill="#525252"/>
        <path id="Path_6771" data-name="Path 6771" d="M2744.792,1173.688a3.341,3.341,0,0,1-1.273-1.287,3.963,3.963,0,0,1,0-3.717,3.341,3.341,0,0,1,1.273-1.287,3.8,3.8,0,0,1,3.636,0,3.338,3.338,0,0,1,1.273,1.287,3.966,3.966,0,0,1,0,3.717,3.337,3.337,0,0,1-1.273,1.287,3.8,3.8,0,0,1-3.636,0Zm3.281-.531a2.744,2.744,0,0,0,1.022-1.062,3.412,3.412,0,0,0,0-3.1,2.748,2.748,0,0,0-1.022-1.062,3,3,0,0,0-2.927,0,2.729,2.729,0,0,0-1.021,1.062,3.4,3.4,0,0,0,0,3.1,2.725,2.725,0,0,0,1.021,1.062,3,3,0,0,0,2.927,0Z" transform="translate(-2732.802 -1163.993)" fill="#525252"/>
        <path id="Path_6772" data-name="Path 6772" d="M2812.372,1167.343l-2.7,7.108h-.64l-2.4-6.168-2.41,6.168h-.626l-2.7-7.108h.654l2.369,6.345,2.424-6.345h.585l2.41,6.332,2.4-6.332Z" transform="translate(-2782.946 -1164.347)" fill="#525252"/>
        <path id="Path_6773" data-name="Path 6773" d="M2904.407,1167.71a3.023,3.023,0,0,1,.775,2.233v4.153h-.681V1170a2.523,2.523,0,0,0-.605-1.824,2.247,2.247,0,0,0-1.7-.627,2.612,2.612,0,0,0-1.974.749,2.78,2.78,0,0,0-.722,2.016v3.785h-.681v-7.108h.654v1.539a2.7,2.7,0,0,1,1.1-1.171,3.375,3.375,0,0,1,1.722-.422A2.854,2.854,0,0,1,2904.407,1167.71Z" transform="translate(-2867.817 -1163.993)" fill="#525252"/>
        <path id="Path_6774" data-name="Path 6774" d="M2967.609,1144.856h.681v10.1h-.681Z" transform="translate(-2927.439 -1144.856)" fill="#525252"/>
        <path id="Path_6775" data-name="Path 6775" d="M2990.195,1173.688a3.339,3.339,0,0,1-1.272-1.287,3.963,3.963,0,0,1,0-3.717,3.34,3.34,0,0,1,1.272-1.287,3.8,3.8,0,0,1,3.637,0,3.343,3.343,0,0,1,1.273,1.287,3.959,3.959,0,0,1,0,3.717,3.343,3.343,0,0,1-1.273,1.287,3.8,3.8,0,0,1-3.637,0Zm3.282-.531a2.741,2.741,0,0,0,1.021-1.062,3.4,3.4,0,0,0,0-3.1,2.745,2.745,0,0,0-1.021-1.062,3,3,0,0,0-2.927,0,2.734,2.734,0,0,0-1.021,1.062,3.4,3.4,0,0,0,0,3.1,2.731,2.731,0,0,0,1.021,1.062,3,3,0,0,0,2.927,0Z" transform="translate(-2945.511 -1163.993)" fill="#525252"/>
        <path id="Path_6776" data-name="Path 6776" d="M3057.713,1167.608a2.608,2.608,0,0,1,.708,1.981v4.507h-.653v-1.266a2.371,2.371,0,0,1-.994.974,3.3,3.3,0,0,1-1.566.347,2.884,2.884,0,0,1-1.872-.558,1.93,1.93,0,0,1-.054-2.907,3.038,3.038,0,0,1,2.021-.552h2.437v-.572a2,2,0,0,0-.537-1.512,2.188,2.188,0,0,0-1.574-.517,3.794,3.794,0,0,0-1.355.245,3.407,3.407,0,0,0-1.1.654l-.34-.49a3.768,3.768,0,0,1,1.279-.742,4.658,4.658,0,0,1,1.566-.266A2.83,2.83,0,0,1,3057.713,1167.608Zm-.905,5.576a2.481,2.481,0,0,0,.932-1.185v-1.334h-2.424a2.416,2.416,0,0,0-1.519.381,1.28,1.28,0,0,0-.47,1.049,1.31,1.31,0,0,0,.519,1.1,2.322,2.322,0,0,0,1.457.4A2.675,2.675,0,0,0,3056.808,1173.184Z" transform="translate(-3001.147 -1163.993)" fill="#525252"/>
        <path id="Path_6777" data-name="Path 6777" d="M3118.408,1144.856v10.1h-.667v-1.674a3.052,3.052,0,0,1-1.184,1.28,3.345,3.345,0,0,1-1.73.449,3.533,3.533,0,0,1-1.8-.463,3.318,3.318,0,0,1-1.26-1.28,3.76,3.76,0,0,1-.456-1.865,3.8,3.8,0,0,1,.456-1.873,3.259,3.259,0,0,1,1.26-1.28,3.574,3.574,0,0,1,1.8-.456,3.28,3.28,0,0,1,1.709.449,3.2,3.2,0,0,1,1.191,1.253v-4.644Zm-2.076,9.164a2.741,2.741,0,0,0,1.021-1.062,3.4,3.4,0,0,0,0-3.1,2.745,2.745,0,0,0-1.021-1.062,3,3,0,0,0-2.928,0,2.742,2.742,0,0,0-1.021,1.062,3.4,3.4,0,0,0,0,3.1,2.737,2.737,0,0,0,1.021,1.062,3,3,0,0,0,2.928,0Z" transform="translate(-3051.997 -1144.856)" fill="#525252"/>
        <path id="Path_6778" data-name="Path 6778" d="M3208.307,1173.688a3.334,3.334,0,0,1-1.271-1.287,3.955,3.955,0,0,1,0-3.717,3.335,3.335,0,0,1,1.271-1.287,3.8,3.8,0,0,1,3.636,0,3.341,3.341,0,0,1,1.273,1.287,3.963,3.963,0,0,1,0,3.717,3.341,3.341,0,0,1-1.273,1.287,3.8,3.8,0,0,1-3.636,0Zm3.283-.531a2.74,2.74,0,0,0,1.021-1.062,3.4,3.4,0,0,0,0-3.1,2.743,2.743,0,0,0-1.021-1.062,3,3,0,0,0-2.929,0,2.728,2.728,0,0,0-1.02,1.062,3.4,3.4,0,0,0,0,3.1,2.724,2.724,0,0,0,1.02,1.062,3,3,0,0,0,2.929,0Z" transform="translate(-3134.564 -1163.993)" fill="#525252"/>
        <path id="Path_6779" data-name="Path 6779" d="M3281.35,1167.71a3.022,3.022,0,0,1,.777,2.233v4.153h-.681V1170a2.527,2.527,0,0,0-.605-1.824,2.248,2.248,0,0,0-1.7-.627,2.615,2.615,0,0,0-1.974.749,2.783,2.783,0,0,0-.721,2.016v3.785h-.681v-7.108h.654v1.539a2.7,2.7,0,0,1,1.1-1.171,3.381,3.381,0,0,1,1.723-.422A2.851,2.851,0,0,1,3281.35,1167.71Z" transform="translate(-3194.541 -1163.993)" fill="#525252"/>
        <path id="Path_6780" data-name="Path 6780" d="M3366.728,1163.9a1.71,1.71,0,0,1-.647.375,2.542,2.542,0,0,1-.81.129,1.918,1.918,0,0,1-1.429-.51,1.938,1.938,0,0,1-.5-1.423v-4.644h-1.307v-.585h1.307v-1.552h.682v1.552h2.26v.585h-2.26v4.576a1.5,1.5,0,0,0,.333,1.055,1.278,1.278,0,0,0,.987.361,1.579,1.579,0,0,0,1.1-.4Z" transform="translate(-3269.311 -1154.248)" fill="#525252"/>
        <path id="Path_6781" data-name="Path 6781" d="M3417.082,1148.573a3.024,3.024,0,0,1,.777,2.234v4.153h-.681v-4.1a2.523,2.523,0,0,0-.606-1.825,2.249,2.249,0,0,0-1.7-.627,2.613,2.613,0,0,0-1.975.749,2.783,2.783,0,0,0-.722,2.015v3.786h-.68v-10.1h.68v4.48a2.613,2.613,0,0,1,1.089-1.137,3.45,3.45,0,0,1,1.7-.4A2.852,2.852,0,0,1,3417.082,1148.573Z" transform="translate(-3312.19 -1144.856)" fill="#525252"/>
        <path id="Path_6782" data-name="Path 6782" d="M3481.341,1170.706h-6.114a2.964,2.964,0,0,0,.422,1.478,2.708,2.708,0,0,0,1.07,1,3.419,3.419,0,0,0,2.8.1,2.5,2.5,0,0,0,.988-.742l.4.449a3.03,3.03,0,0,1-1.164.858,4.056,4.056,0,0,1-3.412-.163,3.368,3.368,0,0,1-1.3-1.28,3.674,3.674,0,0,1-.469-1.866,3.869,3.869,0,0,1,.443-1.859,3.262,3.262,0,0,1,1.219-1.287,3.521,3.521,0,0,1,3.479-.007,3.241,3.241,0,0,1,1.212,1.273,3.831,3.831,0,0,1,.442,1.852Zm-4.724-2.839a2.551,2.551,0,0,0-.961.939,3.063,3.063,0,0,0-.415,1.369h5.447a2.86,2.86,0,0,0-.409-1.362,2.644,2.644,0,0,0-2.315-1.28A2.721,2.721,0,0,0,3476.617,1167.867Z" transform="translate(-3366.85 -1163.993)" fill="#525252"/>
      </g>
      <g id="Group_4640" data-name="Group 4640" transform="translate(0 18.424)">
        <path id="Path_6783" data-name="Path 6783" d="M2658.042,1297.414H2649.9l-1.6,3.77h-3.119l7.33-16.289h2.979l7.354,16.289h-3.165Zm-1-2.374-3.072-7.121-3.048,7.121Z" transform="translate(-2645.173 -1284.661)" fill="#525252"/>
        <path id="Path_6784" data-name="Path 6784" d="M2801.328,1313.631a5.71,5.71,0,0,1,2.246,2.235,7.225,7.225,0,0,1,0,6.666,5.683,5.683,0,0,1-2.246,2.246,6.6,6.6,0,0,1-3.246.791,5.017,5.017,0,0,1-3.98-1.675v6.027h-2.908v-16.941h2.769v1.629a4.5,4.5,0,0,1,1.781-1.326,6.013,6.013,0,0,1,2.339-.442A6.606,6.606,0,0,1,2801.328,1313.631Zm-.93,8.378a4.348,4.348,0,0,0,0-5.631,3.518,3.518,0,0,0-2.642-1.07,3.753,3.753,0,0,0-1.885.477,3.453,3.453,0,0,0-1.326,1.362,4.532,4.532,0,0,0,0,4.1,3.442,3.442,0,0,0,1.326,1.361,3.738,3.738,0,0,0,1.885.477A3.516,3.516,0,0,0,2800.4,1322.009Z" transform="translate(-2771.74 -1308.884)" fill="#525252"/>
        <path id="Path_6785" data-name="Path 6785" d="M2921.148,1313.631a5.712,5.712,0,0,1,2.246,2.235,7.227,7.227,0,0,1,0,6.666,5.685,5.685,0,0,1-2.246,2.246,6.6,6.6,0,0,1-3.246.791,5.018,5.018,0,0,1-3.98-1.675v6.027h-2.908v-16.941h2.769v1.629a4.5,4.5,0,0,1,1.78-1.326,6.016,6.016,0,0,1,2.339-.442A6.6,6.6,0,0,1,2921.148,1313.631Zm-.931,8.378a4.346,4.346,0,0,0,0-5.631,3.517,3.517,0,0,0-2.641-1.07,3.751,3.751,0,0,0-1.885.477,3.449,3.449,0,0,0-1.326,1.362,4.528,4.528,0,0,0,0,4.1,3.438,3.438,0,0,0,1.326,1.361,3.736,3.736,0,0,0,1.885.477A3.515,3.515,0,0,0,2920.217,1322.009Z" transform="translate(-2875.596 -1308.884)" fill="#525252"/>
        <path id="Path_6786" data-name="Path 6786" d="M3073.61,1299.367a7.592,7.592,0,0,1-2.78-1.42l1.047-2.35a8.228,8.228,0,0,0,2.456,1.291,8.914,8.914,0,0,0,2.92.5,5.051,5.051,0,0,0,2.711-.581,1.764,1.764,0,0,0,.9-1.536,1.486,1.486,0,0,0-.5-1.152,3.513,3.513,0,0,0-1.268-.71q-.768-.256-2.094-.582a24.257,24.257,0,0,1-3.013-.884,4.948,4.948,0,0,1-1.978-1.385,3.726,3.726,0,0,1-.826-2.548,4.347,4.347,0,0,1,.732-2.455,4.961,4.961,0,0,1,2.21-1.757,8.968,8.968,0,0,1,3.62-.652,11.7,11.7,0,0,1,2.932.373,8.119,8.119,0,0,1,2.489,1.07l-.953,2.35a9.445,9.445,0,0,0-2.234-.954,8.378,8.378,0,0,0-2.258-.326,4.713,4.713,0,0,0-2.665.605,1.868,1.868,0,0,0-.873,1.606,1.452,1.452,0,0,0,.5,1.14,3.607,3.607,0,0,0,1.268.7q.768.257,2.1.582a22.059,22.059,0,0,1,2.978.872,5.12,5.12,0,0,1,1.99,1.384,3.651,3.651,0,0,1,.826,2.513,4.29,4.29,0,0,1-.733,2.444,4.991,4.991,0,0,1-2.222,1.745,9.055,9.055,0,0,1-3.63.651A12.45,12.45,0,0,1,3073.61,1299.367Z" transform="translate(-3014.12 -1283.147)" fill="#525252"/>
        <path id="Path_6787" data-name="Path 6787" d="M3185.624,1307.775a3.417,3.417,0,0,1-1.245.628,5.612,5.612,0,0,1-1.547.209,4.391,4.391,0,0,1-3.165-1.07,4.12,4.12,0,0,1-1.117-3.118v-5.981H3176.5v-2.327h2.048v-2.839h2.908v2.839h3.328v2.327h-3.328v5.911a1.968,1.968,0,0,0,.443,1.385,1.657,1.657,0,0,0,1.279.477,2.555,2.555,0,0,0,1.63-.512Z" transform="translate(-3105.714 -1291.927)" fill="#525252"/>
        <path id="Path_6788" data-name="Path 6788" d="M3255.347,1324.754a5.937,5.937,0,0,1-2.362-2.269,6.787,6.787,0,0,1,0-6.574,5.966,5.966,0,0,1,2.362-2.257,7.544,7.544,0,0,1,6.818,0,5.973,5.973,0,0,1,2.362,2.257,6.79,6.79,0,0,1,0,6.574,5.945,5.945,0,0,1-2.362,2.269,7.543,7.543,0,0,1-6.818,0Zm6.049-2.746a4.306,4.306,0,0,0,0-5.631,3.807,3.807,0,0,0-5.293,0,4.346,4.346,0,0,0,0,5.631,3.808,3.808,0,0,0,5.293,0Z" transform="translate(-3171.271 -1308.884)" fill="#525252"/>
        <path id="Path_6789" data-name="Path 6789" d="M3379.67,1312.84v2.769a3.7,3.7,0,0,0-.675-.07,3.515,3.515,0,0,0-2.653.989,3.944,3.944,0,0,0-.955,2.851v6.027h-2.909v-12.427h2.77v1.816Q3376.5,1312.84,3379.67,1312.84Z" transform="translate(-3275.581 -1308.884)" fill="#525252"/>
        <path id="Path_6790" data-name="Path 6790" d="M3449.068,1320.123h-9.75a3.377,3.377,0,0,0,1.339,2.176,4.382,4.382,0,0,0,2.688.8,4.53,4.53,0,0,0,3.374-1.35l1.559,1.791a5.248,5.248,0,0,1-2.118,1.513,8.395,8.395,0,0,1-6.494-.3,5.866,5.866,0,0,1-2.407-2.269,6.406,6.406,0,0,1-.849-3.293,6.5,6.5,0,0,1,.826-3.27,5.864,5.864,0,0,1,2.292-2.269,6.687,6.687,0,0,1,3.305-.814,6.512,6.512,0,0,1,3.245.8,5.67,5.67,0,0,1,2.234,2.257,6.836,6.836,0,0,1,.8,3.362Q3449.114,1319.565,3449.068,1320.123Zm-8.6-4.13a3.48,3.48,0,0,0-1.176,2.2h7.052A3.432,3.432,0,0,0,3445.2,1316a3.467,3.467,0,0,0-2.372-.838A3.511,3.511,0,0,0,3440.469,1315.993Z" transform="translate(-3330.994 -1308.884)" fill="#525252"/>
      </g>
    </g>
  </g>
</svg>
