<svg xmlns="http://www.w3.org/2000/svg" width="83.308" height="86.406" viewBox="0 0 83.308 86.406">
  <g id="Group_39041" data-name="Group 39041" transform="translate(0.5 0.5)">
    <g id="Group_1973" data-name="Group 1973" transform="translate(0 0)">
      <g id="Group_1972" data-name="Group 1972">
        <path id="Path_16888" data-name="Path 16888" d="M79.293,148.406a1.335,1.335,0,0,0,.3-.034l20.189-4.659a41.188,41.188,0,1,0-15.912-8.753l-5.763,11.525a1.327,1.327,0,0,0,1.187,1.921Zm20.526-7.392a1.338,1.338,0,0,0-.3.034l-17.78,4.1,4.964-9.928a1.328,1.328,0,0,0-.332-1.609,38.368,38.368,0,1,1,13.824,7.454A1.335,1.335,0,0,0,99.819,141.014Z" transform="translate(-70 -63)" fill="#fff" stroke="#fff" stroke-width="1"/>
      </g>
    </g>
  </g>
</svg>
