<svg xmlns="http://www.w3.org/2000/svg" width="26.083" height="21.9" viewBox="0 0 26.083 21.9">
  <g id="Group_1979" data-name="Group 1979" transform="translate(0.1 0.1)">
    <g id="Group_1982" data-name="Group 1982" transform="translate(0)">
      <path id="Path_16890" data-name="Path 16890" d="M10.8,21.7c-2.017,0-3.609,0-4.857-.125a6.459,6.459,0,0,1-3.05-.924,6.368,6.368,0,0,1-1.843-1.843,6.455,6.455,0,0,1-.924-3.05C0,14.51,0,12.917,0,10.9v-.1C0,8.783,0,7.19.125,5.943a6.451,6.451,0,0,1,.924-3.05A6.361,6.361,0,0,1,2.892,1.049,6.456,6.456,0,0,1,5.942.125C7.19,0,8.783,0,10.8,0h4.285C17.1,0,18.693,0,19.94.125a6.46,6.46,0,0,1,3.05.924,6.374,6.374,0,0,1,1.843,1.843,6.463,6.463,0,0,1,.924,3.05c.125,1.247.125,2.84.125,4.856v.1c0,2.016,0,3.609-.125,4.857a6.461,6.461,0,0,1-.924,3.05A6.368,6.368,0,0,1,22.99,20.65a6.464,6.464,0,0,1-3.05.924c-1.247.125-2.84.125-4.857.125ZM1.553,3.575A6.234,6.234,0,0,0,.905,6.021C.784,7.229.784,8.748.784,10.85s0,3.621.121,4.829a5.746,5.746,0,0,0,.8,2.7,5.585,5.585,0,0,0,1.617,1.617,5.749,5.749,0,0,0,2.7.8c1.208.121,2.727.121,4.829.121h4.183c2.1,0,3.622,0,4.829-.121a5.752,5.752,0,0,0,2.7-.8,5.585,5.585,0,0,0,1.618-1.618,5.752,5.752,0,0,0,.8-2.7c.121-1.208.121-2.727.121-4.829s0-3.621-.121-4.829a6.234,6.234,0,0,0-.647-2.446l-.336-.609L21.673,5.287a54.727,54.727,0,0,1-4.811,4.495,6.358,6.358,0,0,1-3.921,1.584A6.356,6.356,0,0,1,9.021,9.782,54.7,54.7,0,0,1,4.21,5.287L1.889,2.966ZM10.85.784c-2.1,0-3.622,0-4.829.121a5.749,5.749,0,0,0-2.7.8c-.152.1-.3.209-.444.323l-.453.365L4.715,4.683A54.336,54.336,0,0,0,9.5,9.159a5.569,5.569,0,0,0,3.445,1.423,5.568,5.568,0,0,0,3.445-1.423,54.265,54.265,0,0,0,4.782-4.475l2.289-2.289L23,2.029c-.141-.114-.291-.223-.444-.323a5.746,5.746,0,0,0-2.7-.8C18.654.784,17.135.784,15.033.784Z" stroke="#000" stroke-width="0.2" fill-rule="evenodd"/>
    </g>
  </g>
</svg>
