<svg xmlns="http://www.w3.org/2000/svg" width="168.144" height="38.958" viewBox="0 0 168.144 38.958">
  <g id="Group_39052" data-name="Group 39052" transform="translate(0 -0.001)">
    <g id="Group_4651" data-name="Group 4651" transform="translate(0 0.001)">
      <g id="Group_4644" data-name="Group 4644" transform="translate(21.453 13.974)">
        <g id="Group_4643" data-name="Group 4643">
          <path id="Path_6791" data-name="Path 6791" d="M2444.136,677.069l-7.1-4.1-5.837,5.642,5.334,5.156,7.6-4.386a1.338,1.338,0,0,0,0-2.317Z" transform="translate(-2431.202 -672.974)" fill="#525252"/>
        </g>
      </g>
      <g id="Group_4646" data-name="Group 4646" transform="translate(1.16 0)">
        <g id="Group_4645" data-name="Group 4645">
          <path id="Path_6792" data-name="Path 6792" d="M2292.112,573.3l-7.81-4.508-17.115-8.771,19.332,18.687Z" transform="translate(-2267.187 -560.025)" fill="#525252"/>
        </g>
      </g>
      <g id="Group_4648" data-name="Group 4648" transform="translate(1.444 20.547)">
        <g id="Group_4647" data-name="Group 4647">
          <path id="Path_6793" data-name="Path 6793" d="M2269.482,744.507l16.861-9.288,7.279-4.2-5.092-4.922Z" transform="translate(-2269.482 -726.095)" fill="#525252"/>
        </g>
      </g>
      <g id="Group_4650" data-name="Group 4650" transform="translate(0 0.756)">
        <g id="Group_4649" data-name="Group 4649">
          <path id="Path_6794" data-name="Path 6794" d="M2257.826,566.136l-.018,37.739L2277.337,585Z" transform="translate(-2257.808 -566.136)" fill="#525252"/>
        </g>
      </g>
    </g>
    <g id="Group_4669" data-name="Group 4669" transform="translate(39.461 0.06)">
      <g id="Group_4667" data-name="Group 4667" transform="translate(0 16.518)">
        <g id="Group_4666" data-name="Group 4666">
          <g id="Group_4656" data-name="Group 4656" transform="translate(0 0.676)">
            <path id="Path_6796" data-name="Path 6796" d="M2587.9,706.909h2.6V712.8a8.256,8.256,0,0,1-2.661,1.394,10.207,10.207,0,0,1-3.126.486,8.429,8.429,0,0,1-4.076-.982,7.3,7.3,0,0,1-2.852-2.714,7.895,7.895,0,0,1,0-7.814,7.284,7.284,0,0,1,2.862-2.714,8.532,8.532,0,0,1,4.108-.982,8.978,8.978,0,0,1,3.379.612,6.637,6.637,0,0,1,2.555,1.8l-1.732,1.69a5.554,5.554,0,0,0-4.076-1.69,5.762,5.762,0,0,0-2.777.655,4.774,4.774,0,0,0-1.9,1.837,5.285,5.285,0,0,0-.686,2.7,5.2,5.2,0,0,0,.686,2.661,4.916,4.916,0,0,0,1.9,1.859,5.567,5.567,0,0,0,2.756.676,5.95,5.95,0,0,0,3.042-.76Z" transform="translate(-2576.744 -699.475)" fill="#525252"/>
          </g>
          <g id="Group_4657" data-name="Group 4657" transform="translate(16.178 4.266)">
            <path id="Path_6797" data-name="Path 6797" d="M2710.413,739.307a5.4,5.4,0,0,1-2.144-2.059,6.158,6.158,0,0,1,0-5.966,5.423,5.423,0,0,1,2.144-2.049,6.846,6.846,0,0,1,6.188,0,5.425,5.425,0,0,1,2.144,2.049,6.16,6.16,0,0,1,0,5.966,5.4,5.4,0,0,1-2.144,2.059,6.846,6.846,0,0,1-6.188,0Zm5.492-2.492a3.91,3.91,0,0,0,0-5.111,3.225,3.225,0,0,0-2.408-.971,3.192,3.192,0,0,0-2.4.971,3.945,3.945,0,0,0,0,5.111,3.191,3.191,0,0,0,2.4.971A3.224,3.224,0,0,0,2715.9,736.815Z" transform="translate(-2707.498 -728.494)" fill="#525252"/>
          </g>
          <g id="Group_4658" data-name="Group 4658" transform="translate(29.8 4.266)">
            <path id="Path_6798" data-name="Path 6798" d="M2820.513,739.307a5.388,5.388,0,0,1-2.144-2.059,6.157,6.157,0,0,1,0-5.966,5.415,5.415,0,0,1,2.144-2.049,6.847,6.847,0,0,1,6.189,0,5.418,5.418,0,0,1,2.144,2.049,6.157,6.157,0,0,1,0,5.966,5.391,5.391,0,0,1-2.144,2.059,6.847,6.847,0,0,1-6.189,0Zm5.492-2.492a3.911,3.911,0,0,0,0-5.111,3.225,3.225,0,0,0-2.408-.971,3.192,3.192,0,0,0-2.4.971,3.945,3.945,0,0,0,0,5.111,3.191,3.191,0,0,0,2.4.971A3.224,3.224,0,0,0,2826,736.815Z" transform="translate(-2817.598 -728.494)" fill="#525252"/>
          </g>
          <g id="Group_4659" data-name="Group 4659" transform="translate(43.422 4.266)">
            <path id="Path_6799" data-name="Path 6799" d="M2939.821,728.621v9.567q0,5.955-6.083,5.956a11.291,11.291,0,0,1-3.083-.412,6.551,6.551,0,0,1-2.407-1.193l1.183-1.985a5.655,5.655,0,0,0,1.869.982,7.339,7.339,0,0,0,2.291.369,3.784,3.784,0,0,0,2.725-.845,3.452,3.452,0,0,0,.866-2.576v-.591a4.341,4.341,0,0,1-1.648,1.119,5.811,5.811,0,0,1-2.133.38,6.116,6.116,0,0,1-2.9-.686,5.145,5.145,0,0,1-2.049-1.933,5.777,5.777,0,0,1,0-5.691,5.1,5.1,0,0,1,2.049-1.911,6.2,6.2,0,0,1,2.9-.676,5.944,5.944,0,0,1,2.228.4,4.115,4.115,0,0,1,1.679,1.225v-1.5Zm-3.558,7.635a3.048,3.048,0,0,0,.961-2.334,2.99,2.99,0,0,0-.961-2.3,3.886,3.886,0,0,0-4.942,0,2.991,2.991,0,0,0-.961,2.3,3.048,3.048,0,0,0,.961,2.334,3.851,3.851,0,0,0,4.942,0Z" transform="translate(-2927.698 -728.494)" fill="#525252"/>
          </g>
          <g id="Group_4660" data-name="Group 4660" transform="translate(59.009)">
            <path id="Path_6800" data-name="Path 6800" d="M3053.673,694.012h2.64v15.671h-2.64Z" transform="translate(-3053.673 -694.012)" fill="#525252"/>
          </g>
          <g id="Group_4661" data-name="Group 4661" transform="translate(64.183 4.266)">
            <path id="Path_6801" data-name="Path 6801" d="M3106.981,735.1h-8.849a3.066,3.066,0,0,0,1.215,1.975,3.978,3.978,0,0,0,2.439.729,4.109,4.109,0,0,0,3.062-1.225l1.416,1.626a4.766,4.766,0,0,1-1.923,1.373,7.613,7.613,0,0,1-5.892-.274,5.326,5.326,0,0,1-2.186-2.059,5.817,5.817,0,0,1-.771-2.988,5.9,5.9,0,0,1,.75-2.967,5.329,5.329,0,0,1,2.08-2.059,6.073,6.073,0,0,1,3-.739,5.919,5.919,0,0,1,2.946.729,5.164,5.164,0,0,1,2.027,2.049,6.21,6.21,0,0,1,.729,3.052Q3107.023,734.6,3106.981,735.1Zm-7.8-3.749a3.154,3.154,0,0,0-1.066,2h6.4a3.115,3.115,0,0,0-1.035-1.985,3.149,3.149,0,0,0-2.154-.76A3.185,3.185,0,0,0,3099.177,731.356Z" transform="translate(-3095.491 -728.494)" fill="#525252"/>
          </g>
          <g id="Group_4662" data-name="Group 4662" transform="translate(84.331 0.887)">
            <path id="Path_6802" data-name="Path 6802" d="M3267.768,701.816a4.87,4.87,0,0,1,2.186,1.816,5.551,5.551,0,0,1,0,5.607,4.846,4.846,0,0,1-2.186,1.827,8.188,8.188,0,0,1-3.348.634h-3.337v4.266h-2.746V701.182h6.083A8.183,8.183,0,0,1,3267.768,701.816Zm-.75,6.8a3.011,3.011,0,0,0,0-4.351,4.216,4.216,0,0,0-2.724-.76h-3.21v5.871h3.21A4.218,4.218,0,0,0,3267.017,708.616Z" transform="translate(-3258.337 -701.182)" fill="#525252"/>
          </g>
          <g id="Group_4663" data-name="Group 4663" transform="translate(99.411)">
            <path id="Path_6803" data-name="Path 6803" d="M3380.216,694.012h2.641v15.671h-2.641Z" transform="translate(-3380.216 -694.012)" fill="#525252"/>
          </g>
          <g id="Group_4664" data-name="Group 4664" transform="translate(104.712 4.266)">
            <path id="Path_6804" data-name="Path 6804" d="M3431.984,729.687a4.613,4.613,0,0,1,1.32,3.6V739.9h-2.492v-1.373a3.076,3.076,0,0,1-1.383,1.13,5.411,5.411,0,0,1-2.165.391,5.305,5.305,0,0,1-2.218-.433,3.419,3.419,0,0,1-1.467-1.2,3.047,3.047,0,0,1-.518-1.742,2.985,2.985,0,0,1,1.13-2.439,5.611,5.611,0,0,1,3.558-.919h2.915v-.169a2.309,2.309,0,0,0-.708-1.816,3.061,3.061,0,0,0-2.1-.634,6.072,6.072,0,0,0-1.869.3,4.6,4.6,0,0,0-1.552.823l-1.035-1.922a6.412,6.412,0,0,1,2.134-1.035,9.488,9.488,0,0,1,2.639-.359A5.5,5.5,0,0,1,3431.984,729.687Zm-2.409,7.983a2.471,2.471,0,0,0,1.089-1.3v-1.309h-2.725q-2.28,0-2.281,1.5a1.344,1.344,0,0,0,.57,1.14,2.616,2.616,0,0,0,1.585.422A3.4,3.4,0,0,0,3429.575,737.67Z" transform="translate(-3423.061 -728.494)" fill="#525252"/>
          </g>
          <g id="Group_4665" data-name="Group 4665" transform="translate(116.032 4.393)">
            <path id="Path_6805" data-name="Path 6805" d="M3527.207,729.518l-5.28,12.186a5.678,5.678,0,0,1-1.8,2.587,4.3,4.3,0,0,1-2.555.75,5.257,5.257,0,0,1-1.669-.275,3.69,3.69,0,0,1-1.351-.76l1.056-1.943a2.871,2.871,0,0,0,.9.57,2.755,2.755,0,0,0,1.046.211,1.8,1.8,0,0,0,1.15-.359,3.175,3.175,0,0,0,.834-1.2l.191-.444-4.92-11.32h2.745l3.548,8.343,3.569-8.343Z" transform="translate(-3514.556 -729.518)" fill="#525252"/>
          </g>
        </g>
      </g>
      <g id="Group_4668" data-name="Group 4668" transform="translate(0.496 0)">
        <path id="Path_6806" data-name="Path 6806" d="M2584.983,569.7a3.65,3.65,0,0,1-1.667-.39,4.421,4.421,0,0,1-1.348-1.048,4.946,4.946,0,0,1-.894-1.482,4.67,4.67,0,0,1-.32-1.706,4.811,4.811,0,0,1,1.207-3.206,4.137,4.137,0,0,1,1.342-1,3.889,3.889,0,0,1,1.68-.364,3.952,3.952,0,0,1,2.171.549,3.541,3.541,0,0,1,1.291,1.431l-.881.613a2.658,2.658,0,0,0-1.086-1.176,3.074,3.074,0,0,0-1.521-.383,2.664,2.664,0,0,0-1.252.294,3,3,0,0,0-.964.8,3.658,3.658,0,0,0-.613,1.144,4.2,4.2,0,0,0-.211,1.329,3.957,3.957,0,0,0,.236,1.373,3.551,3.551,0,0,0,.67,1.137,3.231,3.231,0,0,0,1.01.773,2.789,2.789,0,0,0,1.24.281,2.971,2.971,0,0,0,1.481-.4,4.476,4.476,0,0,0,1.329-1.214v1.188A3.689,3.689,0,0,1,2584.983,569.7Zm2.76-3.718h-1.955v-.869h2.926v4.523h-.971Z" transform="translate(-2580.754 -560.501)" fill="#525252"/>
        <path id="Path_6807" data-name="Path 6807" d="M2665.387,569.066v1.022h-6.158v-9.071h6.044v1.022h-4.894v2.938h4.255v.958h-4.255v3.13Z" transform="translate(-2649.52 -560.953)" fill="#525252"/>
        <path id="Path_6808" data-name="Path 6808" d="M2722.091,562.039h-3.131v8.048h-1.15v-8.048h-3.13v-1.022h7.411Z" transform="translate(-2698.11 -560.953)" fill="#525252"/>
        <path id="Path_6809" data-name="Path 6809" d="M2808.129,570.088v-9.071h1.149v9.071Z" transform="translate(-2779.997 -560.953)" fill="#525252"/>
        <path id="Path_6810" data-name="Path 6810" d="M2836.126,563.138v6.95h-1.15v-9.071h.971l5.544,7.09V561.03h1.15v9.058h-1.048Z" transform="translate(-2803.522 -560.953)" fill="#525252"/>
        <path id="Path_6811" data-name="Path 6811" d="M2940.125,569.7a3.884,3.884,0,0,1-1.737-.383,4.23,4.23,0,0,1-1.348-1.042,4.883,4.883,0,0,1-1.181-3.174,4.663,4.663,0,0,1,.325-1.731,4.821,4.821,0,0,1,.907-1.469,4.386,4.386,0,0,1,1.361-1.022,3.85,3.85,0,0,1,1.7-.377,3.78,3.78,0,0,1,1.737.4,4.3,4.3,0,0,1,1.343,1.06,5.021,5.021,0,0,1,.868,1.482,4.775,4.775,0,0,1-.914,4.874,4.294,4.294,0,0,1-1.361,1.016A3.9,3.9,0,0,1,2940.125,569.7Zm-3.1-4.6a4.051,4.051,0,0,0,.224,1.335,3.7,3.7,0,0,0,.632,1.144,3.065,3.065,0,0,0,.984.792,2.763,2.763,0,0,0,1.278.294,2.727,2.727,0,0,0,1.3-.306,3.083,3.083,0,0,0,.977-.818,3.738,3.738,0,0,0,.613-1.15,4.091,4.091,0,0,0,.211-1.29,3.985,3.985,0,0,0-.224-1.329,3.717,3.717,0,0,0-.639-1.144,3.024,3.024,0,0,0-.983-.792,2.751,2.751,0,0,0-1.258-.288,2.781,2.781,0,0,0-1.3.3,3.021,3.021,0,0,0-.977.811,3.885,3.885,0,0,0-.62,1.143A3.955,3.955,0,0,0,2937.021,565.1Z" transform="translate(-2891.923 -560.501)" fill="#525252"/>
        <path id="Path_6812" data-name="Path 6812" d="M3018.995,563.138v6.95h-1.15v-9.071h.971l5.545,7.09V561.03h1.15v9.058h-1.048Z" transform="translate(-2963.765 -560.953)" fill="#525252"/>
      </g>
    </g>
  </g>
</svg>
