<svg id="Group_96" data-name="Group 96" xmlns="http://www.w3.org/2000/svg" width="26.397" height="26.398" viewBox="0 0 26.397 26.398">
  <path id="Path_23" data-name="Path 23" d="M452.8,140.087c3.524,0,3.942.014,5.333.077a7.29,7.29,0,0,1,2.452.454,4.372,4.372,0,0,1,2.5,2.5,7.316,7.316,0,0,1,.455,2.452c.063,1.391.077,1.809.077,5.333s-.014,3.943-.077,5.334a7.306,7.306,0,0,1-.455,2.45,4.369,4.369,0,0,1-2.5,2.506,7.29,7.29,0,0,1-2.452.454c-1.391.063-1.809.077-5.333.077s-3.942-.014-5.333-.077a7.289,7.289,0,0,1-2.452-.454,4.369,4.369,0,0,1-2.5-2.506,7.3,7.3,0,0,1-.455-2.45c-.063-1.391-.076-1.809-.076-5.334s.013-3.942.076-5.333a7.314,7.314,0,0,1,.455-2.452,4.372,4.372,0,0,1,2.5-2.5,7.29,7.29,0,0,1,2.452-.454c1.391-.063,1.809-.077,5.333-.077m0-2.378c-3.585,0-4.034.015-5.442.08a9.665,9.665,0,0,0-3.2.614,6.74,6.74,0,0,0-3.859,3.861,9.659,9.659,0,0,0-.614,3.2c-.064,1.408-.08,1.858-.08,5.442s.015,4.035.08,5.442a9.66,9.66,0,0,0,.614,3.2,6.74,6.74,0,0,0,3.859,3.861,9.7,9.7,0,0,0,3.2.614c1.408.064,1.857.08,5.442.08s4.034-.015,5.442-.08a9.7,9.7,0,0,0,3.2-.614,6.747,6.747,0,0,0,3.861-3.861,9.691,9.691,0,0,0,.614-3.2c.063-1.407.078-1.857.078-5.442s-.015-4.034-.078-5.442a9.69,9.69,0,0,0-.614-3.2,6.747,6.747,0,0,0-3.861-3.861,9.666,9.666,0,0,0-3.2-.614c-1.408-.065-1.857-.08-5.442-.08" transform="translate(-439.604 -137.709)" fill="#fff"/>
  <path id="Path_24" data-name="Path 24" d="M451.458,142.785a6.778,6.778,0,1,0,6.778,6.778,6.778,6.778,0,0,0-6.778-6.778m0,11.178a4.4,4.4,0,1,1,4.4-4.4,4.4,4.4,0,0,1-4.4,4.4" transform="translate(-438.259 -136.364)" fill="#fff"/>
  <path id="Path_25" data-name="Path 25" d="M457.523,142.9a1.584,1.584,0,1,1-1.584-1.584,1.584,1.584,0,0,1,1.584,1.584" transform="translate(-435.695 -136.752)" fill="#fff"/>
</svg>
