<svg xmlns="http://www.w3.org/2000/svg" width="25.954" height="25.954" viewBox="0 0 25.954 25.954">
  <g id="Group_39153" data-name="Group 39153" transform="translate(-1334.582 -8927.389)">
    <rect id="Rectangle_3759" data-name="Rectangle 3759" width="5.427" height="17.303" transform="translate(1335.014 8935.922)" fill="#801BC5"/>
    <path id="Path_7496" data-name="Path 7496" d="M632.97,146.464q-.307-.034-.629-.047a6.332,6.332,0,0,0-5.348,2.448,3.829,3.829,0,0,0-.236.339v-2.315h-5.191v17.3h5.427v-8.129a7.064,7.064,0,0,1,.5-3.495,2.648,2.648,0,0,1,2.414-1.353,2.877,2.877,0,0,1,3.068,2.969v10.087H638.4V152.984c0-3.862-1.963-6.146-5.427-6.52" transform="translate(722.139 8789.072)" fill="#801BC5"/>
    <path id="Path_7497" data-name="Path 7497" d="M554.88,84.806a3.146,3.146,0,1,1-3.146-3.146,3.146,3.146,0,0,1,3.146,3.146" transform="translate(785.994 8845.729)" fill="#801BC5"/>
  </g>
</svg>
