<svg xmlns="http://www.w3.org/2000/svg" width="25.116" height="33.365" viewBox="0 0 25.116 33.365">
  <path id="pin_point" data-name="pin point" d="M12.011,32.156c-.918-.954-1.834-1.87-2.711-2.823a49.292,49.292,0,0,1-6.4-8.464,21.484,21.484,0,0,1-2.67-6.555A12.033,12.033,0,0,1,21.984,5.235,11.763,11.763,0,0,1,23.5,15.743a25.807,25.807,0,0,1-3.218,6.594A56.417,56.417,0,0,1,12.2,31.987C12.16,32.03,12.112,32.069,12.011,32.156Zm.02-16.078a4.015,4.015,0,1,0-4-4.02A4.023,4.023,0,0,0,12.031,16.078Z" transform="translate(0.512 0.521)" fill="none" stroke="#000" stroke-width="1"/>
</svg>
