<svg xmlns="http://www.w3.org/2000/svg" width="24.098" height="34.942" viewBox="0 0 24.098 34.942">
  <g id="Group_1981" data-name="Group 1981" transform="translate(0)">
    <g id="Group_1983" data-name="Group 1983" transform="translate(0 0)">
      <path id="Path_16891" data-name="Path 16891" d="M19.6,9.2a.6.6,0,1,1,.6-.6.6.6,0,0,1-.6.6" transform="translate(-7.553 -3.18)"/>
      <path id="Path_16892" data-name="Path 16892" d="M15.6,48.2a.6.6,0,1,1,0-1.2h4.82a.6.6,0,1,1,0,1.2Z" transform="translate(-5.963 -18.685)"/>
      <path id="Path_16893" data-name="Path 16893" d="M6.627,34.942A6.635,6.635,0,0,1,0,28.315V6.627A6.635,6.635,0,0,1,6.627,0H17.471A6.635,6.635,0,0,1,24.1,6.627V28.315a6.635,6.635,0,0,1-6.627,6.627Zm0-33.737A5.429,5.429,0,0,0,1.2,6.627V28.315a5.428,5.428,0,0,0,5.422,5.422H17.471a5.428,5.428,0,0,0,5.422-5.422V6.627A5.428,5.428,0,0,0,17.471,1.2Z" transform="translate(0 0)" fill-rule="evenodd"/>
    </g>
  </g>
</svg>
