<svg id="Group_38626" data-name="Group 38626" xmlns="http://www.w3.org/2000/svg" width="114.879" height="114.879" viewBox="0 0 114.879 114.879">
  <path id="Path_7481" data-name="Path 7481" d="M452.455,354.508l-32.324-18.662a5.64,5.64,0,0,0-8.46,4.884v37.324a5.64,5.64,0,0,0,8.46,4.884l32.324-18.662a5.64,5.64,0,0,0,0-9.768" transform="translate(-371.182 -302.126)" fill="#fff"/>
  <path id="Path_7482" data-name="Path 7482" d="M57.439,114.879a57.439,57.439,0,1,1,57.439-57.439,57.5,57.5,0,0,1-57.439,57.439m0-106.4A48.965,48.965,0,1,0,106.4,57.439,49.02,49.02,0,0,0,57.439,8.475" fill="#fff"/>
</svg>
