<svg xmlns="http://www.w3.org/2000/svg" width="28.586" height="29.624" viewBox="0 0 28.586 29.624">
  <g id="Group_1974" data-name="Group 1974" transform="translate(0.5 0.5)">
    <g id="Group_1973" data-name="Group 1973" transform="translate(0 0)">
      <g id="Group_1972" data-name="Group 1972">
        <path id="Path_16888" data-name="Path 16888" d="M73.115,91.624a.448.448,0,0,0,.1-.011l6.766-1.562a13.8,13.8,0,1,0-5.333-2.934L72.717,90.98a.445.445,0,0,0,.4.644Zm6.879-2.477a.448.448,0,0,0-.1.011l-5.959,1.375L75.6,87.206a.445.445,0,0,0-.111-.539,12.859,12.859,0,1,1,4.633,2.5A.447.447,0,0,0,79.994,89.147Z" transform="translate(-70 -63)" fill="#801BC5" stroke="#801BC5" stroke-width="1"/>
      </g>
    </g>
  </g>
</svg>
